<svg xmlns="http://www.w3.org/2000/svg" width="97" height="710" viewBox="0 0 97 710">
  <metadata><?xpacket begin="﻿" id="W5M0MpCehiHzreSzNTczkc9d"?>
<x:xmpmeta xmlns:x="adobe:ns:meta/" x:xmptk="Adobe XMP Core 5.6-c138 79.159824, 2016/09/14-01:09:01        ">
   <rdf:RDF xmlns:rdf="http://www.w3.org/1999/02/22-rdf-syntax-ns#">
      <rdf:Description rdf:about=""/>
   </rdf:RDF>
</x:xmpmeta>
                                                                                                    
                                                                                                    
                                                                                                    
                                                                                                    
                                                                                                    
                                                                                                    
                                                                                                    
                                                                                                    
                                                                                                    
                                                                                                    
                                                                                                    
                                                                                                    
                                                                                                    
                                                                                                    
                                                                                                    
                                                                                                    
                                                                                                    
                                                                                                    
                                                                                                    
                                                                                                    
                           
<?xpacket end="w"?></metadata>
<defs>
    <style>
      .cls-1 {
        fill: #00c2e1;
        fill-rule: evenodd;
      }
    </style>
  </defs>
  <path id="Совмещенный_контур" data-name="Совмещенный контур" class="cls-1" d="M-18.805,568.98a7.126,7.126,0,0,1-7.128-7.126,7.129,7.129,0,0,1,7.128-7.129H-2.891a7.129,7.129,0,0,1,7.127,7.129,7.126,7.126,0,0,1-7.127,7.126H-18.805Zm-77.195,0a7.126,7.126,0,0,1-7.127-7.126A7.129,7.129,0,0,1-96,554.725a7.129,7.129,0,0,1,7.128,7.129A7.126,7.126,0,0,1-96,568.98ZM-21.225,413H-6.11A1.138,1.138,0,0,1-5,412.255H74.74a7.127,7.127,0,1,0,0-14.254H54.245a7.212,7.212,0,0,0-1.077-.08H9.865a7.127,7.127,0,0,1,.194-14.117,7.218,7.218,0,0,0-.875-0.057,7.128,7.128,0,1,0,0-14.256l-14.178,0a7.128,7.128,0,0,1-7.128-7.129,7.127,7.127,0,0,1,7.128-7.127H32.027a7.128,7.128,0,0,0,0-14.256H22.562a7.128,7.128,0,0,1,0-14.255h0.6a7.127,7.127,0,0,0-.033-14.253h-63.84a7.127,7.127,0,0,1-7.127-7.129,7.128,7.128,0,0,1,7.127-7.127H-2.532A7.128,7.128,0,0,0,4.6,291.088a7.128,7.128,0,0,0-7.128-7.128l-14.647,0a7.127,7.127,0,0,1-7.127-7.129,7.128,7.128,0,0,1,7.127-7.129l49.206,0a7.128,7.128,0,0,0,0-14.256h-5.36a7.128,7.128,0,1,1,0-14.255H36.894a7.129,7.129,0,0,0,.354-14.25l-47.646,0a7.128,7.128,0,0,1-7.129-7.129,7.129,7.129,0,0,1,7.129-7.128h2.719a7.127,7.127,0,0,0,7.127-7.128,7.126,7.126,0,0,0-7.127-7.126h-3.21a7.128,7.128,0,0,1-7.129-7.128,7.129,7.129,0,0,1,7.129-7.129H60.168a7.128,7.128,0,0,0,0-14.255H10.01a7.128,7.128,0,1,1,0-14.255H24.342a7.128,7.128,0,1,0,0-14.255H-2.174A7.126,7.126,0,0,1-9.3,134.282a7.125,7.125,0,0,1,7.127-7.126H2.438a7.128,7.128,0,1,0,0-14.255H-4.6a7.126,7.126,0,0,1-7.127-7.127A7.128,7.128,0,0,1-4.6,98.644H48.041a7.128,7.128,0,0,0,0-14.256H33.136a7.128,7.128,0,0,1,0-14.256h21.87a7.127,7.127,0,0,0,0-14.255h-2.12a7.128,7.128,0,1,1,0-14.256H71.5a7.128,7.128,0,1,0,0-14.256A7.134,7.134,0,0,0,72.52,27.3a7.128,7.128,0,0,1,1.021-14.183H97V0H-266V720H-2.175a7.128,7.128,0,0,0,4.428-6.6,7.123,7.123,0,0,0-7.1-7.126h-0.6a7.129,7.129,0,0,1-7.127-7.129,7.126,7.126,0,0,1,7.127-7.126H4.027a7.128,7.128,0,0,0,0-14.256H-32.995a7.127,7.127,0,0,1-7.128-7.127,7.128,7.128,0,0,1,7.128-7.129l14.178,0a7.128,7.128,0,0,0,7.129-7.129,7.128,7.128,0,0,0-7.129-7.127,7.218,7.218,0,0,0,.875-0.057,7.123,7.123,0,0,1-6.244-7.069,7.138,7.138,0,0,1,.25-1.873H21A7.127,7.127,0,1,0,21,626H3.942a7.126,7.126,0,0,1-.883-14.2,7.219,7.219,0,0,0-.875-0.057,7.128,7.128,0,1,0,0-14.256l-14.178,0a7.128,7.128,0,0,1-7.128-7.129,7.127,7.127,0,0,1,7.128-7.127H25.027a7.128,7.128,0,0,0,0-14.256H15.562a7.128,7.128,0,0,1,0-14.255h0.6a7.127,7.127,0,0,0-.033-14.253h-63.84a7.128,7.128,0,0,1-7.127-7.129,7.128,7.128,0,0,1,7.127-7.127H-9.532A7.128,7.128,0,0,0-2.4,519.088a7.128,7.128,0,0,0-7.128-7.128l-14.647,0a7.127,7.127,0,0,1-7.127-7.129,7.128,7.128,0,0,1,7.127-7.129l49.206,0a7.128,7.128,0,0,0,0-14.256h-5.36a7.128,7.128,0,1,1,0-14.255H29.894a7.129,7.129,0,0,0,.355-14.25l-47.646,0a7.128,7.128,0,0,1-7.129-7.129,7.129,7.129,0,0,1,7.129-7.128h2.719a7.127,7.127,0,0,0,7.127-7.128,7.126,7.126,0,0,0-7.127-7.126h-3.21a7.128,7.128,0,0,1-7.128-7.128A7.127,7.127,0,0,1-21.225,413Zm0.037-243.08a7.128,7.128,0,0,1-7.128-7.128,7.128,7.128,0,0,1,7.128-7.127H-12.6a7.127,7.127,0,0,1,7.127,7.127A7.126,7.126,0,0,1-12.6,169.92h-8.589Zm9.383,171.06a7.126,7.126,0,0,1-7.128-7.126,7.129,7.129,0,0,1,7.128-7.129H4.109a7.128,7.128,0,0,1,0,14.255H-11.805Zm-20.436,0a7.126,7.126,0,0,1-7.127-7.126,7.129,7.129,0,0,1,7.127-7.129,7.129,7.129,0,0,1,7.128,7.129A7.126,7.126,0,0,1-32.241,340.98ZM37.307,521.4V516.6a7.131,7.131,0,0,0-6.713-4.73H25.462a7.128,7.128,0,1,0,0,14.255h5.133A7.132,7.132,0,0,0,37.307,521.4Zm53.107-315.84a7.126,7.126,0,0,0-7.127-7.126H78.155a7.127,7.127,0,1,0,0,14.254h5.133A7.127,7.127,0,0,0,90.414,205.557Z"/>
</svg>
