<svg xmlns="http://www.w3.org/2000/svg" width="66.41" height="691.344" viewBox="0 0 66.41 691.344">
  <metadata><?xpacket begin="﻿" id="W5M0MpCehiHzreSzNTczkc9d"?>
<x:xmpmeta xmlns:x="adobe:ns:meta/" x:xmptk="Adobe XMP Core 5.6-c138 79.159824, 2016/09/14-01:09:01        ">
   <rdf:RDF xmlns:rdf="http://www.w3.org/1999/02/22-rdf-syntax-ns#">
      <rdf:Description rdf:about=""/>
   </rdf:RDF>
</x:xmpmeta>
                                                                                                    
                                                                                                    
                                                                                                    
                                                                                                    
                                                                                                    
                                                                                                    
                                                                                                    
                                                                                                    
                                                                                                    
                                                                                                    
                                                                                                    
                                                                                                    
                                                                                                    
                                                                                                    
                                                                                                    
                                                                                                    
                                                                                                    
                                                                                                    
                                                                                                    
                                                                                                    
                           
<?xpacket end="w"?></metadata>
<defs>
    <style>
      .cls-1 {
        fill: #00c2e1;
        fill-rule: evenodd;
      }
    </style>
  </defs>
  <path id="Совмещенный_контур" data-name="Совмещенный контур" class="cls-1" d="M1666.19,690.08a7.128,7.128,0,1,1,0,14.255h-8.59a7.128,7.128,0,1,1,0-14.255h8.59Zm-9.38-171.06a7.128,7.128,0,0,1,0,14.255h-15.92a7.128,7.128,0,1,1,0-14.255h15.92Zm-11.62-294.1h-8.59a7.128,7.128,0,1,1,0-14.255h8.59A7.128,7.128,0,1,1,1645.19,224.92Zm18.04,171.06h-15.91a7.128,7.128,0,1,1,0-14.255h15.91A7.128,7.128,0,1,1,1663.23,395.98Zm45.1,0a7.128,7.128,0,1,1,7.13-7.126A7.132,7.132,0,0,1,1708.33,395.98ZM1634.4,281.941l-47.65,0a7.13,7.13,0,0,0,.36,14.25h10.22a7.128,7.128,0,1,1,0,14.255h-5.36a7.128,7.128,0,0,0,0,14.256l49.21,0a7.129,7.129,0,1,1,0,14.258l-14.65,0a7.128,7.128,0,1,0,0,14.255h38.19a7.128,7.128,0,0,1,0,14.256h-63.84a7.127,7.127,0,0,0-.04,14.253h0.6a7.128,7.128,0,1,1,0,14.255h-9.47a7.128,7.128,0,0,0,0,14.256h37.02a7.128,7.128,0,1,1,0,14.256l-14.17,0a7.128,7.128,0,1,0,0,14.256,7.293,7.293,0,0,0-.88.057,7.127,7.127,0,0,1-.88,14.2h-63.8a7.127,7.127,0,1,0,0,14.254h91.67a6.818,6.818,0,0,1,.25,1.873,7.121,7.121,0,0,1-6.24,7.069,7.293,7.293,0,0,0,.88.057,7.128,7.128,0,1,0,0,14.256l14.17,0a7.128,7.128,0,1,1,0,14.256h-37.02a7.128,7.128,0,0,0,0,14.256h9.47a7.128,7.128,0,1,1,0,14.255h-0.6a7.127,7.127,0,0,0,.04,14.253h63.84a7.128,7.128,0,0,1,0,14.256h-38.19a7.128,7.128,0,1,0,0,14.255l14.65,0a7.129,7.129,0,1,1,0,14.258l-49.21,0a7.128,7.128,0,0,0,0,14.256h5.36a7.128,7.128,0,1,1,0,14.255h-10.22a7.13,7.13,0,0,0-.36,14.25l47.65,0a7.129,7.129,0,1,1,0,14.257h-2.72a7.127,7.127,0,1,0,0,14.254h3.21a7.129,7.129,0,1,1,0,14.257h-71.06a7.128,7.128,0,0,0,0,14.255h50.16a7.128,7.128,0,1,1,0,14.255h-14.33a7.128,7.128,0,1,0,0,14.255h26.51a7.1,7.1,0,0,1,2.39.41H1883V18.665l-274,0V68.114h-58.54a7.128,7.128,0,0,1,1.02,14.183,7.136,7.136,0,0,0,1.02.073,7.128,7.128,0,1,0,0,14.256h18.61a7.128,7.128,0,1,1,0,14.256h-2.12a7.128,7.128,0,0,0,0,14.255h21.87a7.128,7.128,0,1,1,0,14.255h-14.9a7.128,7.128,0,1,0,0,14.256h52.64a7.128,7.128,0,1,1,0,14.256h-7.04a7.128,7.128,0,1,0,0,14.255h4.61a7.127,7.127,0,1,1,0,14.254h-26.51a7.128,7.128,0,1,0,0,14.255h14.33a7.128,7.128,0,1,1,0,14.255h-50.16a7.128,7.128,0,1,0,0,14.255h71.06a7.129,7.129,0,1,1,0,14.257h-3.21a7.127,7.127,0,1,0,0,14.254h2.72A7.129,7.129,0,1,1,1634.4,281.941Zm-79.81,372.5a7.124,7.124,0,0,0,7.12,7.127h5.14a7.127,7.127,0,0,0,0-14.254h-5.14A7.125,7.125,0,0,0,1554.59,654.442Zm-21-393.885a7.125,7.125,0,0,0,7.12,7.128h5.14a7.127,7.127,0,0,0,0-14.254h-5.14A7.124,7.124,0,0,0,1533.59,260.557Z" transform="translate(-1533.59 -18.656)"/>
</svg>
