<svg xmlns="http://www.w3.org/2000/svg" width="198" height="72" viewBox="0 0 198 72">
  <metadata><?xpacket begin="﻿" id="W5M0MpCehiHzreSzNTczkc9d"?>
<x:xmpmeta xmlns:x="adobe:ns:meta/" x:xmptk="Adobe XMP Core 5.6-c138 79.159824, 2016/09/14-01:09:01        ">
   <rdf:RDF xmlns:rdf="http://www.w3.org/1999/02/22-rdf-syntax-ns#">
      <rdf:Description rdf:about=""/>
   </rdf:RDF>
</x:xmpmeta>
                                                                                                    
                                                                                                    
                                                                                                    
                                                                                                    
                                                                                                    
                                                                                                    
                                                                                                    
                                                                                                    
                                                                                                    
                                                                                                    
                                                                                                    
                                                                                                    
                                                                                                    
                                                                                                    
                                                                                                    
                                                                                                    
                                                                                                    
                                                                                                    
                                                                                                    
                                                                                                    
                           
<?xpacket end="w"?></metadata>
<defs>
    <style>
      .cls-1 {
        fill: #f5e000;
        fill-rule: evenodd;
      }
    </style>
  </defs>
  <path id="Контур" class="cls-1" d="M1883,0H1480.52a7.091,7.091,0,0,1-2.16.335h-8.59A7.107,7.107,0,0,1,1467.6,0h-18.28a7.091,7.091,0,0,1-2.16.335h-14.33a7.127,7.127,0,1,0,0,14.255h26.51a7.127,7.127,0,1,1,0,14.254h-4.61a7.128,7.128,0,1,0,0,14.256h7.04a7.128,7.128,0,0,1,0,14.257h-52.64a7.128,7.128,0,1,0,0,14.256h14.9a7.09,7.09,0,0,1,2.33.39H1883V0Z" transform="translate(-1402)"/>
</svg>
