<svg xmlns="http://www.w3.org/2000/svg" width="266.156" height="72" viewBox="0 0 266.156 72">
  <metadata><?xpacket begin="﻿" id="W5M0MpCehiHzreSzNTczkc9d"?>
<x:xmpmeta xmlns:x="adobe:ns:meta/" x:xmptk="Adobe XMP Core 5.6-c138 79.159824, 2016/09/14-01:09:01        ">
   <rdf:RDF xmlns:rdf="http://www.w3.org/1999/02/22-rdf-syntax-ns#">
      <rdf:Description rdf:about=""/>
   </rdf:RDF>
</x:xmpmeta>
                                                                                                    
                                                                                                    
                                                                                                    
                                                                                                    
                                                                                                    
                                                                                                    
                                                                                                    
                                                                                                    
                                                                                                    
                                                                                                    
                                                                                                    
                                                                                                    
                                                                                                    
                                                                                                    
                                                                                                    
                                                                                                    
                                                                                                    
                                                                                                    
                                                                                                    
                                                                                                    
                           
<?xpacket end="w"?></metadata>
<defs>
    <style>
      .cls-1 {
        fill: #f5e000;
        fill-rule: evenodd;
      }
    </style>
  </defs>
  <path id="Контур" class="cls-1" d="M158,0H-266V72H187.645a7.121,7.121,0,0,1,2.167-.335H198.4A7.134,7.134,0,0,1,200.57,72h18.275a7.112,7.112,0,0,1,2.165-.335h14.332a7.127,7.127,0,1,0,0-14.255H208.826a7.127,7.127,0,1,1,0-14.254h4.612a7.128,7.128,0,1,0,0-14.255H206.4a7.128,7.128,0,0,1,0-14.256h52.642a7.128,7.128,0,0,0,0-14.256H244.136A7.114,7.114,0,0,1,241.805,0H158Z"/>
</svg>
