<svg xmlns="http://www.w3.org/2000/svg" width="310.406" height="670" viewBox="0 0 310.406 670">
  <metadata><?xpacket begin="﻿" id="W5M0MpCehiHzreSzNTczkc9d"?>
<x:xmpmeta xmlns:x="adobe:ns:meta/" x:xmptk="Adobe XMP Core 5.6-c138 79.159824, 2016/09/14-01:09:01        ">
   <rdf:RDF xmlns:rdf="http://www.w3.org/1999/02/22-rdf-syntax-ns#">
      <rdf:Description rdf:about=""/>
   </rdf:RDF>
</x:xmpmeta>
                                                                                                    
                                                                                                    
                                                                                                    
                                                                                                    
                                                                                                    
                                                                                                    
                                                                                                    
                                                                                                    
                                                                                                    
                                                                                                    
                                                                                                    
                                                                                                    
                                                                                                    
                                                                                                    
                                                                                                    
                                                                                                    
                                                                                                    
                                                                                                    
                                                                                                    
                                                                                                    
                           
<?xpacket end="w"?></metadata>
<defs>
    <style>
      .cls-1 {
        fill: #fff;
        fill-rule: evenodd;
      }
    </style>
  </defs>
  <path id="Совмещенный_контур" data-name="Совмещенный контур" class="cls-1" d="M198.812,457.92a7.128,7.128,0,1,1,0-14.255H207.4a7.128,7.128,0,0,1,0,14.255h-8.589ZM208.2,628.98a7.128,7.128,0,1,1,0-14.255h15.914a7.128,7.128,0,0,1,0,14.255H208.2Zm-20.436,0a7.128,7.128,0,1,1,7.128-7.126A7.126,7.126,0,0,1,187.759,628.98ZM148.812,144.92a7.128,7.128,0,1,1,0-14.255H157.4a7.128,7.128,0,0,1,0,14.255h-8.589ZM158.2,315.98a7.128,7.128,0,1,1,0-14.255h15.914a7.128,7.128,0,0,1,0,14.255H158.2Zm-20.436,0a7.128,7.128,0,1,1,7.128-7.126A7.126,7.126,0,0,1,137.759,315.98ZM159.6,201.941a7.129,7.129,0,1,1,0-14.257h2.719a7.127,7.127,0,1,0,0-14.254h-3.21a7.129,7.129,0,1,1,0-14.257h71.057a7.128,7.128,0,0,0,0-14.255H180.01a7.128,7.128,0,1,1,0-14.255h14.332a7.128,7.128,0,1,0,0-14.255H167.826a7.127,7.127,0,1,1,0-14.254h4.612a7.128,7.128,0,1,0,0-14.255H165.4a7.128,7.128,0,0,1,0-14.257h52.641a7.128,7.128,0,0,0,0-14.256h-14.9a7.128,7.128,0,0,1,0-14.256h21.87a7.127,7.127,0,0,0,0-14.255h-2.12a7.128,7.128,0,1,1,0-14.256h18.619a7.128,7.128,0,1,0,0-14.256A7.133,7.133,0,0,0,242.52,2.3,7.109,7.109,0,0,1,238.235,0H-96V593h50v79H229.06a7.146,7.146,0,0,1,1-.2,7.224,7.224,0,0,0-.875-0.057,7.128,7.128,0,1,0,0-14.256l-14.179,0a7.128,7.128,0,1,1,0-14.256h37.022a7.128,7.128,0,0,0,0-14.256h-9.466a7.128,7.128,0,0,1,0-14.255h0.6a7.127,7.127,0,0,0-.033-14.253h-63.84a7.128,7.128,0,0,1,0-14.256h38.184a7.128,7.128,0,1,0,0-14.255l-14.647,0a7.129,7.129,0,0,1,0-14.258l49.206,0a7.128,7.128,0,0,0,0-14.256h-5.361a7.128,7.128,0,1,1,0-14.255h10.228a7.129,7.129,0,0,0,.354-14.25l-47.646,0a7.129,7.129,0,1,1,0-14.257h2.719a7.127,7.127,0,1,0,0-14.254h-3.21a7.129,7.129,0,1,1,0-14.257h71.057a7.128,7.128,0,0,0,0-14.255H230.01a7.128,7.128,0,1,1,0-14.255h14.332a7.128,7.128,0,1,0,0-14.255H217.826a7.127,7.127,0,1,1,0-14.254h4.612a7.128,7.128,0,1,0,0-14.255H215.4a7.126,7.126,0,0,1-7.126-7.127c0-.163,0-0.323.016-0.483a7.132,7.132,0,0,1,7.043-6.035H244.74a7.127,7.127,0,1,0,0-14.254h-63.8a7.126,7.126,0,0,1-.883-14.2,7.224,7.224,0,0,0-.875-0.057,7.128,7.128,0,1,0,0-14.256l-14.179,0a7.128,7.128,0,1,1,0-14.256h37.022a7.128,7.128,0,0,0,0-14.256h-9.466a7.128,7.128,0,0,1,0-14.255h0.6a7.127,7.127,0,0,0-.033-14.253h-63.84a7.128,7.128,0,0,1,0-14.256h38.184a7.128,7.128,0,1,0,0-14.255l-14.647,0a7.129,7.129,0,0,1,0-14.258l49.206,0a7.128,7.128,0,0,0,0-14.256h-5.361a7.128,7.128,0,1,1,0-14.255h10.228a7.129,7.129,0,0,0,.354-14.25ZM310.414,493.557a7.126,7.126,0,0,0-7.127-7.126h-5.133a7.127,7.127,0,1,0,0,14.254h5.133A7.127,7.127,0,0,0,310.414,493.557Zm-50-313a7.126,7.126,0,0,0-7.127-7.126h-5.133a7.127,7.127,0,1,0,0,14.254h5.133A7.127,7.127,0,0,0,260.414,180.557Z"/>
</svg>
