<svg xmlns="http://www.w3.org/2000/svg" width="255.66" height="670" viewBox="0 0 255.66 670">
  <metadata><?xpacket begin="﻿" id="W5M0MpCehiHzreSzNTczkc9d"?>
<x:xmpmeta xmlns:x="adobe:ns:meta/" x:xmptk="Adobe XMP Core 5.6-c138 79.159824, 2016/09/14-01:09:01        ">
   <rdf:RDF xmlns:rdf="http://www.w3.org/1999/02/22-rdf-syntax-ns#">
      <rdf:Description rdf:about=""/>
   </rdf:RDF>
</x:xmpmeta>
                                                                                                    
                                                                                                    
                                                                                                    
                                                                                                    
                                                                                                    
                                                                                                    
                                                                                                    
                                                                                                    
                                                                                                    
                                                                                                    
                                                                                                    
                                                                                                    
                                                                                                    
                                                                                                    
                                                                                                    
                                                                                                    
                                                                                                    
                                                                                                    
                                                                                                    
                                                                                                    
                           
<?xpacket end="w"?></metadata>
<defs>
    <style>
      .cls-1 {
        fill: #fff;
        fill-rule: evenodd;
      }
    </style>
  </defs>
  <path id="Совмещенный_контур" data-name="Совмещенный контур" class="cls-1" d="M1351.33,505.954a7,7,0,0,0-7,7V514a7,7,0,0,0,7,7H1359a7,7,0,0,0,7-7v-1.046a7,7,0,0,0-7-7h-7.67ZM1484.19,616.08a7.128,7.128,0,1,1,0,14.255h-8.59a7.128,7.128,0,1,1,0-14.255h8.59Zm-9.38-171.06a7.128,7.128,0,0,1,0,14.255h-15.92a7.128,7.128,0,1,1,0-14.255h15.92Zm20.43,0a7.128,7.128,0,1,1-7.13,7.126A7.126,7.126,0,0,1,1495.24,445.02Zm-11.05-300.1h-8.59a7.128,7.128,0,1,1,0-14.255h8.59A7.128,7.128,0,1,1,1484.19,144.92Zm-9.38,171.06h-15.92a7.128,7.128,0,1,1,0-14.255h15.92A7.128,7.128,0,0,1,1474.81,315.98Zm20.43,0a7.128,7.128,0,1,1,7.13-7.126A7.126,7.126,0,0,1,1495.24,315.98ZM1473.4,201.941l-47.65,0a7.13,7.13,0,0,0,.36,14.25h10.22a7.128,7.128,0,1,1,0,14.255h-5.36a7.128,7.128,0,0,0,0,14.256l49.21,0a7.129,7.129,0,1,1,0,14.258l-14.65,0a7.128,7.128,0,1,0,0,14.255h38.19a7.128,7.128,0,0,1,0,14.256h-63.84a7.127,7.127,0,0,0-.04,14.253h0.6a7.128,7.128,0,1,1,0,14.255h-9.47a7.128,7.128,0,0,0,0,14.256h37.02a7.128,7.128,0,1,1,0,14.256l-14.17,0a7.128,7.128,0,1,0,0,14.256,7.293,7.293,0,0,0-.88.057,7.127,7.127,0,0,1-.88,14.2h-63.8a7.127,7.127,0,0,0-7.13,7.127l0.01,0.372-0.01.372a7.127,7.127,0,0,0,7.13,7.127h63.8a7.126,7.126,0,0,1,.88,14.2,7.094,7.094,0,0,0,.88.058,7.128,7.128,0,1,0,0,14.256l14.17,0a7.128,7.128,0,1,1,0,14.256h-37.02a7.128,7.128,0,0,0,0,14.256h9.47a7.128,7.128,0,1,1,0,14.255h-0.6a7.127,7.127,0,0,0,.04,14.253h63.84a7.128,7.128,0,0,1,0,14.256h-38.19a7.128,7.128,0,1,0,0,14.255l14.65,0a7.129,7.129,0,1,1,0,14.258l-49.21,0a7.128,7.128,0,0,0,0,14.256h5.36a7.128,7.128,0,1,1,0,14.255h-10.22a7.13,7.13,0,0,0-.36,14.25l47.65,0a7.129,7.129,0,1,1,0,14.257h-2.72a7.127,7.127,0,1,0,0,14.254h3.21a7.129,7.129,0,1,1,0,14.257h-71.06a7.128,7.128,0,0,0,0,14.255h50.16a7.128,7.128,0,1,1,0,14.255h-14.33a7.128,7.128,0,1,0,0,14.255h26.51a7.127,7.127,0,1,1,0,14.254h-4.61A7.129,7.129,0,0,0,1456.75,672H1729V0H1394.76a7.11,7.11,0,0,1-4.28,2.3,7.13,7.13,0,0,0,1.02.073,7.128,7.128,0,1,0,0,14.256h18.61a7.128,7.128,0,1,1,0,14.256h-2.12a7.127,7.127,0,0,0,0,14.255h21.87a7.128,7.128,0,1,1,0,14.256h-14.9a7.128,7.128,0,1,0,0,14.256h52.64a7.128,7.128,0,1,1,0,14.257h-7.04a7.128,7.128,0,1,0,0,14.255h4.61a7.127,7.127,0,1,1,0,14.254h-26.51a7.128,7.128,0,1,0,0,14.255h14.33a7.128,7.128,0,1,1,0,14.255h-50.16a7.128,7.128,0,0,0,0,14.255h71.06a7.129,7.129,0,1,1,0,14.257h-3.21a7.127,7.127,0,1,0,0,14.254h2.72A7.129,7.129,0,1,1,1473.4,201.941Zm-100.81,378.5a7.124,7.124,0,0,0,7.12,7.127h5.14a7.127,7.127,0,0,0,0-14.254h-5.14A7.125,7.125,0,0,0,1372.59,580.442Zm0-399.885a7.125,7.125,0,0,0,7.12,7.128h5.14a7.127,7.127,0,0,0,0-14.254h-5.14A7.124,7.124,0,0,0,1372.59,180.557Z" transform="translate(-1344.34)"/>
</svg>
