<svg xmlns="http://www.w3.org/2000/svg" width="23" height="16" viewBox="0 0 23 16">
  <metadata><?xpacket begin="﻿" id="W5M0MpCehiHzreSzNTczkc9d"?>
<x:xmpmeta xmlns:x="adobe:ns:meta/" x:xmptk="Adobe XMP Core 5.6-c138 79.159824, 2016/09/14-01:09:01        ">
   <rdf:RDF xmlns:rdf="http://www.w3.org/1999/02/22-rdf-syntax-ns#">
      <rdf:Description rdf:about=""/>
   </rdf:RDF>
</x:xmpmeta>
                                                                                                    
                                                                                                    
                                                                                                    
                                                                                                    
                                                                                                    
                                                                                                    
                                                                                                    
                                                                                                    
                                                                                                    
                                                                                                    
                                                                                                    
                                                                                                    
                                                                                                    
                                                                                                    
                                                                                                    
                                                                                                    
                                                                                                    
                                                                                                    
                                                                                                    
                                                                                                    
                           
<?xpacket end="w"?></metadata>
<defs>
    <style>
      .cls-1 {
        fill: #00c2e1;
        fill-rule: evenodd;
      }
    </style>
  </defs>
  <path id="be" class="cls-1" d="M1251.87,628.794h3.59a2,2,0,0,1,2.16,2.084,1.853,1.853,0,0,1-1.43,1.926h-4.32v-4.01Zm11.51-8h6.46v2.4h-6.46v-2.4Zm5.6,8h-4.74a2.444,2.444,0,0,1,2.38-2.38,2.486,2.486,0,0,1,2.36,2.38h0Zm-4.88,1.609h7.9v-0.409c0-3.308-2.14-5.982-5.38-5.982-3.26,0-5.4,2.673-5.4,5.982,0,3.332,2.14,6.006,5.4,6.006,3.24,0,4.79-2.062,5.28-4.8h-2.92c-0.26,1.4-1.01,2.4-2.36,2.4s-2.42-1.406-2.52-3.2h0Zm-3.59.793a4.036,4.036,0,0,0-2.44-3.785,4.155,4.155,0,0,0,1.71-3.4,3.817,3.817,0,0,0-3.59-4.012H1249v16h7.19a4.6,4.6,0,0,0,4.32-4.8h0Zm-5.05-4.782h-3.59V623.2h3.59a1.619,1.619,0,0,1,0,3.218h0Z" transform="translate(-1249 -620)"/>
</svg>
