<svg xmlns="http://www.w3.org/2000/svg" width="19" height="20" viewBox="0 0 19 20">
  <metadata><?xpacket begin="﻿" id="W5M0MpCehiHzreSzNTczkc9d"?>
<x:xmpmeta xmlns:x="adobe:ns:meta/" x:xmptk="Adobe XMP Core 5.6-c138 79.159824, 2016/09/14-01:09:01        ">
   <rdf:RDF xmlns:rdf="http://www.w3.org/1999/02/22-rdf-syntax-ns#">
      <rdf:Description rdf:about=""/>
   </rdf:RDF>
</x:xmpmeta>
                                                                                                    
                                                                                                    
                                                                                                    
                                                                                                    
                                                                                                    
                                                                                                    
                                                                                                    
                                                                                                    
                                                                                                    
                                                                                                    
                                                                                                    
                                                                                                    
                                                                                                    
                                                                                                    
                                                                                                    
                                                                                                    
                                                                                                    
                                                                                                    
                                                                                                    
                                                                                                    
                           
<?xpacket end="w"?></metadata>
<defs>
    <style>
      .cls-1 {
        fill: #00c2e1;
        fill-rule: evenodd;
      }
    </style>
  </defs>
  <path id="inst" class="cls-1" d="M1381.93,638a4.124,4.124,0,0,0,4.07-4.162V622.162a4.124,4.124,0,0,0-4.07-4.162h-10.85a4.126,4.126,0,0,0-4.08,4.162v11.676a4.126,4.126,0,0,0,4.08,4.162h10.85Zm-10.85-18.286h10.85a2.442,2.442,0,0,1,2.43,2.448v11.676a2.441,2.441,0,0,1-2.43,2.447h-10.85a2.443,2.443,0,0,1-2.44-2.447V622.162A2.444,2.444,0,0,1,1371.08,619.714Zm11.91,2.834a1.161,1.161,0,1,0-1.16,1.214A1.188,1.188,0,0,0,1382.99,622.548Zm-6.49,10.643a5.2,5.2,0,1,0-4.97-5.191A5.09,5.09,0,0,0,1376.5,633.191Zm0-8.668a3.48,3.48,0,1,1-3.33,3.477A3.414,3.414,0,0,1,1376.5,624.523Z" transform="translate(-1367 -618)"/>
</svg>
