<svg xmlns="http://www.w3.org/2000/svg" width="24" height="21" viewBox="0 0 24 21">
  <metadata><?xpacket begin="﻿" id="W5M0MpCehiHzreSzNTczkc9d"?>
<x:xmpmeta xmlns:x="adobe:ns:meta/" x:xmptk="Adobe XMP Core 5.6-c138 79.159824, 2016/09/14-01:09:01        ">
   <rdf:RDF xmlns:rdf="http://www.w3.org/1999/02/22-rdf-syntax-ns#">
      <rdf:Description rdf:about=""/>
   </rdf:RDF>
</x:xmpmeta>
                                                                                                    
                                                                                                    
                                                                                                    
                                                                                                    
                                                                                                    
                                                                                                    
                                                                                                    
                                                                                                    
                                                                                                    
                                                                                                    
                                                                                                    
                                                                                                    
                                                                                                    
                                                                                                    
                                                                                                    
                                                                                                    
                                                                                                    
                                                                                                    
                                                                                                    
                                                                                                    
                           
<?xpacket end="w"?></metadata>
<defs>
    <style>
      .cls-1 {
        fill: #00c2e1;
        fill-rule: evenodd;
      }
    </style>
  </defs>
  <path id="tw" class="cls-1" d="M1344.29,618.286s1.84-1.6,1.98-2.922a7.566,7.566,0,0,1-3.11,1.288,4.725,4.725,0,0,0-4.92-1.476c-3.2.817-3.87,4.681-3.49,6.22,0,0-5.55.1-10.09-5.466a5.611,5.611,0,0,0,1.6,7.068s-1.83-.125-2.24-0.628a5.227,5.227,0,0,0,3.98,5.215,5.209,5.209,0,0,1-2.27.22,5.19,5.19,0,0,0,4.6,3.55,9.815,9.815,0,0,1-7.33,2.231,12.924,12.924,0,0,0,10.3,2.094c0.28-.066.57-0.142,0.86-0.23a14.756,14.756,0,0,0,8.83-7.7c0.12-.248.23-0.5,0.34-0.772a15.62,15.62,0,0,0,1.23-6.839,9.7,9.7,0,0,0,2.44-2.67A9.871,9.871,0,0,1,1344.29,618.286Z" transform="translate(-1323 -615)"/>
</svg>
