<?xml version="1.0" encoding="UTF-8"?>
<!DOCTYPE svg PUBLIC "-//W3C//DTD SVG 1.1//EN" "http://www.w3.org/Graphics/SVG/1.1/DTD/svg11.dtd">
<!-- Creator: CorelDRAW 2017 -->
<svg xmlns="http://www.w3.org/2000/svg" xml:space="preserve" width="483px" height="683px" version="1.1" style="shape-rendering:geometricPrecision; text-rendering:geometricPrecision; image-rendering:optimizeQuality; fill-rule:evenodd; clip-rule:evenodd"
viewBox="0 0 483 683.1"
 xmlns:xlink="http://www.w3.org/1999/xlink">
 <defs>
  <style type="text/css">
   <![CDATA[
    .fil1 {fill:#00C4E5}
    .fil0 {fill:#FFE200}
   ]]>
  </style>
 </defs>
 <g id="Слой_x0020_1">
  <metadata id="CorelCorpID_0Corel-Layer"/>
  <g id="_590593424">
   <path class="fil0" d="M35.78 592.94l35.31 0c11.44,-17.09 -13.74,-12.9 -17.93,-13.76 -7.23,-1.49 -6.36,-8.55 -2.06,-10.74 3.72,-1.89 44.68,-0.85 50.77,-0.85 1.66,-2.48 4.22,-4.27 3.17,-8.54 -2.28,-9.29 -13.12,-1.24 -16.87,-8.65 -1.6,-3.16 -0.37,-6.8 3.15,-7.84 4.68,-1.37 17.26,2.62 18.32,-6.9 0.94,-8.5 -9.11,-7.91 -17.73,-7.9 -5.14,0 -33.41,1.38 -36.43,-1.64 -2.75,-2.75 -1.42,-7.16 1.39,-8.95 4.32,-2.73 6.29,0.61 10.02,-2.66 2.45,-2.14 3.14,-5.95 1.24,-9.09 -4.74,-7.81 -14.25,3.62 -14.25,-12.06l2.91 -2.53c5.01,-1.89 67.06,2.72 72.01,-2.24 3.05,-3.05 2.16,-8.39 -0.73,-10.57 -4.35,-3.28 -33.41,-1.94 -43.41,-1.86 -6.09,0.05 -9.85,0.86 -11.85,-3.6 -5,-11.11 17.5,-7.52 20.71,-8.38 2.97,-0.79 5.88,-4.65 4.2,-9.13 -3.99,-10.68 -34.99,2.66 -36.59,-9.68 1.18,-5.07 2.42,-5.99 8.09,-6.38 5.82,-0.41 5.73,-1.81 12.7,-1.8 9.66,0.03 19.33,0.04 29,0.04l-1.19 -0.62c-1.67,-0.83 -7.87,-3.14 -4.35,-9.37 3.03,-5.36 21.46,-1.38 31.74,-2.74 6.35,-0.85 6.39,-4.02 6.39,-10.81l-2.91 -2.52 -54.15 -0.18c-6.23,0.05 -12.3,-0.2 -13.15,-5.73 -1.05,-6.85 5.63,-5.49 8.94,-8.48 3.99,-3.61 2.65,-10.28 -2.44,-11.72 -5.32,-1.51 -12.27,1.04 -17.22,-0.9 -2.14,-0.83 -3.56,-2.49 -3.69,-5 -0.15,-2.91 1.7,-4.06 3.14,-6.21 6.9,0 33,0.87 37.68,-0.34 5.09,-1.32 7.64,-7.01 3.82,-11.26 -3.5,-3.88 -10.04,-2.89 -17.05,-2.89 -10.75,-16.04 15.69,-7.21 10.35,-21.11 -1.48,-3.84 -4.5,-4.28 -9.4,-4.29 -17.21,-0.01 -34.44,0.06 -51.65,0.06l0 15.39c2.45,-1.3 4,-2.39 7.01,-0.78 3.29,1.77 2.95,3.44 2.95,8.02 -3.35,2.9 -2.86,3.46 -9.96,1.81l0 235.38z"/>
   <path class="fil1" d="M35.78 114.03l85.1 0.43c10.3,-1.89 94.55,0.68 101.34,-0.48 5.8,-1 7.49,-9.05 2.61,-12.47 -3.57,-2.5 -13.53,-1.07 -18.85,-1.06 -9.99,0.03 -11.75,1.45 -15.39,-5.43 2.81,-12.07 13.24,-1.83 16.68,-10.55 4.69,-11.89 -11.71,-10.27 -15.78,-10.27 -9.25,-13.82 7.49,-11.77 19.92,-11.77 6.33,0 32.69,1.6 36.02,-2.03 1.89,-2.06 3.88,-9.68 -2.97,-10.65l-57.49 0c-50.4,0 -100.8,0 -151.19,0l0 64.28z"/>
   <path class="fil0" d="M120.88 114.46l-85.1 -0.43 0 207.32c6.5,0 32.43,1.61 36.03,-2 3.22,-3.21 5.88,-12.75 -11.58,-12.5 -1.37,0.02 -3.29,0.13 -4.6,0.08 -3.2,-0.14 -5.01,-0.54 -6.62,-2.52 -2.43,-2.99 -0.87,-6.97 2.09,-8.47 3.72,-1.89 44.68,-0.85 50.77,-0.85 1.66,-2.48 4.22,-4.27 3.17,-8.54 -2.28,-9.28 -13.12,-1.24 -16.87,-8.65 -5.31,-10.52 13.19,-7.9 15.33,-8.33 2.78,-0.56 5.74,-2.89 6.14,-6.41 0.94,-8.5 -9.11,-7.91 -17.73,-7.9 -5.14,0 -33.41,1.38 -36.43,-1.64 -2.75,-2.75 -1.42,-7.16 1.39,-8.95 4.32,-2.73 6.29,0.61 10.02,-2.66 2.45,-2.14 3.14,-5.95 1.24,-9.09 -4.74,-7.81 -14.25,3.62 -14.25,-12.06l2.91 -2.53c5.01,-1.89 67.06,2.72 72.01,-2.24 3.05,-3.05 2.16,-8.39 -0.73,-10.57 -4.35,-3.28 -33.41,-1.94 -43.41,-1.86 -6.09,0.05 -9.85,0.86 -11.85,-3.6 -1.7,-3.76 1.3,-7.57 5.57,-8.12 3.74,-0.49 24.08,3.29 19.34,-9.39 -3.99,-10.68 -34.99,2.66 -36.59,-9.68 2.81,-12.06 13.24,-1.82 16.68,-10.54 1.74,-4.41 -0.38,-8.03 -3.16,-9.32 -3.04,-1.41 -8.24,-0.96 -12.62,-0.96 -8.58,-12.82 5.1,-11.78 13.58,-11.77 10.26,0.02 20.53,-0.06 30.79,0.01 5.59,0.04 10.09,0.76 12.34,-3.12 2.14,-3.67 0.73,-8.48 -2.94,-9.91 -10.37,-4.04 -22.08,6.42 -22.08,-9.61l2.91 -2.52 24.25 -0.67z"/>
   <path class="fil1" d="M435.02 144.81c0,11.87 0.88,9.05 33.5,9.05 2.53,0 4.04,-2.21 4.52,-4.85l0 -3.88c-0.48,-2.64 -1.99,-4.85 -4.52,-4.85l-28.97 0c-2.11,0 -4.53,2.42 -4.53,4.53z"/>
   <path class="fil0" d="M133.55 508.75c0,7.99 3.28,7.24 12.68,7.24 6.98,0 6.86,-13.58 0,-13.58 -6.47,0 -12.68,-1.19 -12.68,6.34z"/>
   <path class="fil0" d="M133.55 236.25c0,7.99 3.28,7.24 12.68,7.24 6.98,0 6.86,-13.58 0,-13.58 -6.47,0 -12.68,-1.19 -12.68,6.34z"/>
  </g>
 </g>
</svg>
