<?xml version="1.0" encoding="UTF-8"?>
<!DOCTYPE svg PUBLIC "-//W3C//DTD SVG 1.1//EN" "http://www.w3.org/Graphics/SVG/1.1/DTD/svg11.dtd">
<svg xmlns="http://www.w3.org/2000/svg" xml:space="preserve" width="400px" height="300px" version="1.1" style="shape-rendering:geometricPrecision; text-rendering:geometricPrecision; image-rendering:optimizeQuality; fill-rule:evenodd; clip-rule:evenodd"
viewBox="0 0 400 300"
 xmlns:xlink="http://www.w3.org/1999/xlink"
 xmlns:svg="http://www.w3.org/2000/svg"
 enable-background="new -1362.5 759.7 327.4 239.5">
 <style>
.fil0{
  fill:#d5d5d5;
  }
  .fil1{
  fill:#019ad7;
  }
  .fnt0 {
  font-size:1rem;
  font-family:Ubuntu Condensed, Arial, sans-serif;
  }
  .fnt1 {
  font-size:1.2rem;
  font-family:Ubuntu Condensed, Arial, sans-serif;
  }
 </style>
 <g>
    <g id="contur-map">
     <path class="fil0" d="M159 233c1,-3 2,-3 4,-4 2,2 3,4 5,4 1,0 2,-1 4,0 2,1 2,2 4,2 0,3 0,2 -3,5 -1,1 -2,2 -3,3 1,3 2,4 -1,6 1,1 2,2 3,3 1,1 1,1 2,2 1,0 3,0 4,0 0,-1 0,-2 1,-3 0,-1 0,-1 2,-1 0,1 0,4 1,5 1,3 0,2 2,5 2,1 5,5 7,6 0,1 -1,2 -1,2 -2,0 -4,1 -5,3 1,1 3,3 3,3 0,1 0,2 0,3 0,1 1,2 1,3 -3,1 -2,-1 -5,2 -2,1 -1,2 -3,2 -5,0 -3,-2 -9,2 0,0 -1,1 -2,1 0,0 -1,2 -2,2 0,0 -4,-1 -4,-1 -1,0 0,0 -1,0l-2 -3c-2,-4 -2,-4 -3,-8 -1,0 -2,2 -3,3 -1,0 -5,2 -5,2 -2,0 -7,-3 -10,-3 0,-6 0,-4 -4,-7 -1,-1 -1,-1 -1,-3 -2,-4 -5,0 -5,-7 1,0 1,0 2,0 2,0 2,1 2,-3 0,-2 -3,-4 -4,-6 1,-1 0,-1 3,-1 6,-2 5,-3 11,-3 1,-2 3,-3 4,-4 2,-3 0,-3 2,-5 0,-1 0,-1 1,-1 1,0 3,2 4,2 0,0 2,-2 2,-3 2,0 2,1 4,-3l-2 -2zm-156 -74l0 -3c0,0 0,-1 1,-2 1,-3 2,0 2,-6 1,0 2,0 3,-1 1,0 1,-1 1,-2 1,-3 -1,-3 2,-6 4,-4 2,-3 7,-4 1,0 2,-1 2,-2 0,-1 0,-1 -1,-2 0,0 -1,0 -1,-1 -1,0 -1,0 -1,-1 -1,0 -1,-1 -1,-1 -1,-2 -3,-3 -5,-3l0 -4c1,0 2,-1 3,-1 0,-2 -1,-3 -1,-4 0,-2 0,-3 1,-4 1,-1 2,-2 2,-3 3,-3 0,-1 5,-4 1,1 3,2 4,4 0,0 -1,1 -2,2l0 2c4,0 11,4 11,4 2,0 3,0 5,-2 0,0 1,0 1,1 1,0 1,0 2,1 3,1 9,1 12,-1 1,-1 2,-3 3,-3 4,-5 0,-1 6,-6 2,-1 1,-3 2,-4 0,-1 2,-2 3,-3 1,0 1,-1 2,-1 1,-1 5,-2 7,-2 0,-2 -1,-5 0,-6 0,-2 2,-7 4,-10 0,-1 0,-1 1,-1 2,-1 4,-1 6,-1 1,0 4,2 5,2 2,0 5,0 7,0 1,1 2,2 2,3 2,0 5,0 6,0l5 -2 5 5c5,-1 3,-1 8,2 2,-5 1,-5 4,-6 2,-1 4,-1 6,-2 1,0 3,1 4,2l3 3c2,-1 3,-2 4,-3 0,-1 1,-1 2,-2 7,-3 4,-1 8,-7 -1,-1 -4,-1 -5,-2 -2,-1 -3,-2 -5,-3 0,-9 -2,-6 4,-11 2,-3 2,-2 2,-6 0,-2 3,-3 3,-4 0,-3 1,-4 -1,-6 -1,-2 -2,-2 -1,-4 2,-3 4,-7 7,-9 0,-1 -1,-3 -1,-3 0,-2 0,-3 0,-5 0,-1 0,-2 0,-3 -1,1 -1,1 -2,2 -1,-1 -2,-2 -3,-3 -1,0 -3,0 -5,-1 0,-1 0,-3 -1,-5 3,-2 3,-3 2,-6 1,0 1,-1 2,-1 0,5 1,6 -2,7 0,1 1,3 1,4 1,0 3,0 4,1 1,0 2,1 2,2l3 -3c0,2 1,4 1,5 0,2 -1,3 -1,5 0,1 2,3 2,4 -1,1 -2,1 -3,2 0,1 -1,2 -2,3 -1,1 -2,3 -3,5 1,1 1,1 2,2 2,3 1,3 1,7 0,2 -3,2 -3,5 0,4 0,3 -6,9 -1,1 -1,3 -1,6 1,0 7,4 11,6 0,1 -2,5 -4,6l-5 2c-1,0 -1,0 -2,1 -1,1 -3,3 -4,4 1,1 2,3 2,4 1,1 2,3 2,4l-3 4c0,3 0,3 2,3 1,0 1,1 2,1 1,0 4,-1 6,-1 4,0 8,0 11,1 1,0 1,0 1,1 0,0 0,0 1,1 0,0 1,1 1,2 1,1 2,2 3,3 1,1 2,4 2,5 0,0 5,-1 5,0 1,0 2,1 3,2 -1,3 -6,7 -7,9 -2,4 -2,3 1,7 1,1 1,2 1,4 5,0 6,1 9,2 0,2 1,3 1,5l-4 2c0,0 0,0 0,0 -1,0 -1,0 -1,1 0,0 -1,1 -1,2 -2,3 -1,5 -1,7 0,4 -3,7 2,9 2,1 2,1 2,2 3,4 2,5 2,10 -2,0 -4,2 -5,4 0,1 1,2 2,3 0,1 1,2 2,3 1,1 1,1 3,1 2,1 2,0 3,-1 1,0 5,0 6,0 1,0 4,-1 5,-1 0,1 0,1 1,2 1,2 -1,4 -1,7 0,0 3,3 4,4 0,0 0,2 1,3 0,2 1,3 3,4 3,3 0,3 1,6 2,4 2,2 1,6 -1,2 -1,2 -2,3 -3,2 -2,2 -2,6 0,0 -2,1 -2,2 -2,2 -4,2 -5,4l-3 5c2,2 5,4 8,4 1,1 4,0 5,1 3,1 4,3 10,0 4,-2 4,-6 10,-6 0,-2 0,-3 0,-4 0,-2 0,-2 1,-3 2,-2 2,-1 2,-5 2,0 3,-1 5,-1 0,-2 0,-4 1,-6 0,-2 1,-2 2,-4 2,1 4,1 6,1 0,0 3,-3 4,-3 1,0 3,0 4,0 2,-2 0,-2 4,-1 0,-1 0,-1 0,-2 -3,0 -6,-6 -12,-9 1,-5 2,-4 3,-4l0 -2c3,0 2,0 6,0 0,-1 0,-1 0,-2 0,-2 1,-3 1,-3 0,-2 -1,-2 -1,-4 0,-3 0,-4 2,-5 0,-2 0,-3 -1,-4 -2,-3 -1,-2 0,-6 0,-1 1,-3 1,-4l3 0c1,-2 2,-4 4,-5 0,-1 0,-2 0,-3 -1,-1 -1,-2 -1,-2 -1,-2 -4,-3 -4,-4 0,-8 0,-5 3,-8 0,-1 0,-3 0,-4 0,-2 -1,-3 1,-3 1,0 3,-1 4,-1 4,0 2,1 7,-1 1,0 1,0 2,-1 1,-4 0,-3 4,-5 1,0 2,1 3,2 2,2 2,5 4,6 2,2 3,3 4,1l-2 -2c0,-2 1,-3 1,-5 1,-1 1,-1 1,-1 0,-2 0,-3 1,-4 1,-1 2,-3 3,-3 0,0 3,-3 4,-5 0,-1 1,-2 2,-3 0,-1 -1,-2 -1,-3 -1,-2 0,-2 0,-3 1,-3 1,-3 4,-5 0,0 0,0 1,0 4,1 2,1 4,3 1,1 2,0 4,4 2,0 3,-1 4,0 2,2 1,2 4,2 0,-1 1,-1 1,-3 0,-1 -1,-1 0,-2 1,-2 2,-3 3,-4 0,-2 -1,-4 -2,-5l-3 0c-1,-3 -1,-3 0,-5 1,-3 1,-4 3,-4 -1,-2 -1,-3 -1,-5l-2 -1 -1 2c-2,-2 -3,-3 -5,-4 -1,-1 -1,-1 -2,-2 0,-3 0,-5 0,-7 1,-4 3,1 1,-8 0,0 1,0 2,-1 3,-1 0,-3 4,-5 0,-6 -1,-4 3,-7 0,-1 1,-1 1,-1l-2 -3c1,-2 2,-3 2,-5 -1,-1 -5,-5 -5,-6 0,-4 1,-6 1,-7 0,0 -1,-1 -1,-2 -1,-3 -1,-4 1,-7 0,-2 0,-2 1,-3 2,0 2,0 3,-1 3,-3 1,-2 4,-2 1,0 2,-2 2,-3l0 -2c-3,0 -1,1 -4,3 -1,-1 -2,-2 -3,-1 -1,0 -3,1 -4,1 -3,-5 -3,-1 -5,-1 -2,0 -3,0 -5,0 -1,-1 -1,-2 -1,-5 0,-1 1,-1 1,-2l0 -2 2 0c0,5 -1,2 -1,4 0,1 0,3 0,3l4 1c1,0 1,-2 2,-2 2,0 2,0 4,2 3,0 2,-2 6,0 2,-2 3,-2 6,-2 0,3 0,3 1,5 2,1 2,1 2,4 -1,0 -2,1 -3,1l0 2c2,0 5,-1 6,-1 1,0 3,3 4,3 1,2 2,3 2,5 1,1 1,3 1,3 1,1 1,1 2,2 -2,2 -3,4 0,5 2,1 3,-1 5,1 1,1 1,1 1,2 0,6 -2,4 -2,6 0,3 1,2 3,4 1,3 1,5 2,5l5 2c0,2 1,5 0,6 0,2 0,4 0,5 0,2 0,4 0,6 0,3 -1,6 -1,9 0,1 0,1 0,2 1,2 0,4 1,5 2,2 4,4 5,3 1,0 2,0 3,0 0,-1 1,-2 2,-3 0,-1 0,-2 1,-3 4,0 3,-1 6,-2 4,-1 3,0 4,-4 1,0 2,-1 3,-1 1,0 3,2 3,3 1,2 0,3 1,4l0 -2 2 0 0 6c-1,0 -2,-1 -2,-2l-2 -2c-1,-3 2,-3 -2,-6 -1,0 -1,1 -2,1 0,3 0,3 -4,4 -2,1 -3,2 -6,2 -1,2 -2,5 -3,6 -1,1 -3,1 -4,1 -2,0 -2,0 -3,-1 -1,-1 -2,-2 -2,-3 -3,-2 -2,-4 -2,-7 0,-3 0,-7 0,-10 1,-5 0,-4 1,-10 0,-2 0,-4 0,-6 -1,0 -1,0 -2,0l-1 -1c-2,-1 -3,0 -3,-3 0,-1 0,-1 -1,-2 -2,-5 -3,-1 -3,-7 0,-1 2,-1 2,-4 0,-1 0,0 0,-1 0,0 -1,-1 -1,-1 -1,-1 -2,1 -6,-1 -1,-1 -1,-1 -1,-2 0,-2 0,-2 1,-4 -1,-1 -1,0 -1,-1 -1,-3 -1,-6 -3,-8 -1,0 -3,-2 -3,-2 -1,0 -2,1 -4,1 -1,0 -2,0 -3,0l0 -5c1,0 1,-1 2,-1 0,-1 0,-3 -2,-3 0,1 -1,1 -1,2 -2,1 -2,1 -4,0 -1,2 -1,3 -3,3 -2,1 -2,1 -2,2 0,1 -1,1 -1,2 0,6 1,5 1,7 0,2 -1,2 -1,6 0,1 5,6 6,6 0,1 -1,2 -1,3 0,1 -1,2 -1,3 1,2 1,0 1,3 -1,1 -1,2 -3,3l0 6c-3,1 -2,0 -3,3 0,2 0,2 -2,2 0,1 -1,1 -2,1 0,0 1,4 1,5 0,0 -1,1 -1,1 -1,1 0,1 -1,2 0,3 0,2 1,4 0,3 0,2 2,3 1,1 2,2 3,3l1 -1c1,0 3,1 4,1 0,7 1,5 1,8 -1,0 -2,0 -3,0 -1,3 -2,2 -2,5l4 0c1,2 2,5 3,7 -1,1 -1,1 -2,2 -3,3 -2,3 -2,5 0,1 -1,2 -1,3 -2,0 -3,1 -5,-1 -2,-2 -3,-1 -5,-1l-1 -2c-1,-2 -3,0 -4,-4 -1,0 -2,-1 -3,0l-2 1c0,1 -1,3 0,5 1,3 2,2 -1,6 -2,3 -4,4 -7,8 -1,2 -2,3 -2,5 -1,4 -3,4 0,6 0,1 1,1 1,2 0,0 -3,2 -4,2 -3,-2 -4,-2 -5,-5 -1,-2 -2,-4 -4,-5 -2,1 -2,0 -3,3 -1,3 -1,2 -3,3 -3,1 -2,1 -5,1 -3,-1 -3,0 -6,0 0,2 0,4 0,6 0,1 0,1 -1,1 -2,2 -1,3 -1,6 0,1 2,3 3,4 1,3 1,4 1,7 0,2 -3,0 -4,6 -4,0 -3,-1 -3,2 -1,1 -2,3 -2,4 0,1 2,0 2,7 0,0 0,0 -1,0 -1,1 0,3 0,4 0,3 1,3 0,5 -1,2 0,3 0,5l-6 1 0 2c-1,0 -2,0 -3,0l0 1c3,2 3,2 6,5 5,5 4,4 8,4 1,0 2,2 4,2 1,1 3,1 4,1 3,1 3,5 7,5 3,0 4,0 6,-2l3 3 8 -8c1,1 4,2 5,3 0,1 -1,1 -1,2 2,1 3,2 5,3 1,1 1,1 2,1 1,0 2,1 3,1 1,0 1,1 2,2 2,2 4,2 6,5 1,-1 5,-2 6,-2l5 4c1,2 2,1 4,1 0,6 1,4 2,7l6 0c0,1 1,2 1,3 1,0 1,-1 2,-1 2,-1 2,-1 5,-1 0,-6 -1,-4 2,-8l7 -8c1,0 1,0 1,-1 1,-3 2,-6 4,-8 3,-3 6,-6 9,-10 4,-5 5,-4 5,-9 0,-2 1,-9 1,-11 1,-3 2,-5 2,-8l-4 -2c0,-2 -4,-18 -4,-20 0,-2 2,-3 3,-5 0,0 -2,-1 -2,-2 -2,0 -4,0 -4,-2 -1,-2 -1,-3 -1,-5 1,-1 2,-2 3,-3 3,-2 3,-2 6,-2l0 -4c1,0 2,-1 3,-1 2,-1 4,1 6,1 1,-1 2,-1 3,-1l0 -4c1,-1 3,-2 4,-3 0,0 1,1 1,1 1,1 1,1 1,2 -1,0 0,0 -1,0 0,-1 -1,0 -1,-1 -1,0 -2,1 -3,1l0 5c0,0 -4,1 -5,1 -1,0 -3,-1 -4,-1 0,0 -2,1 -2,1 -1,0 -1,1 -1,4 -5,0 -3,1 -9,5 0,1 1,3 1,4 2,0 6,3 7,4 -1,2 -4,4 -3,6l1 8c4,14 1,9 7,12 -1,2 -2,7 -3,9 0,3 0,7 -1,10 -1,7 1,4 -3,8 -2,3 -3,5 -5,7 -2,2 -4,4 -6,6 -1,1 -1,1 -2,3 -2,4 -1,4 -4,7 -8,11 -8,5 -8,15 -5,0 -4,1 -9,3 0,-1 -1,-3 -1,-4l-6 0c0,-1 -1,-1 -1,-2 -1,-2 -1,-2 -1,-4 -3,0 -2,0 -4,-2 -4,-3 -3,-4 -8,-3 -1,1 -2,1 -3,1 -1,-1 -2,-3 -4,-4 -3,-1 -3,-2 -5,-3 -2,-1 -3,-1 -5,-2 -2,-2 -3,-2 -5,-3 0,-1 1,-2 1,-3 -1,0 -1,-1 -2,-1 -1,1 -3,2 -4,4 -1,1 -2,2 -3,3 -1,1 -1,1 -2,2 -1,0 -1,1 -2,2 0,1 1,2 0,3 0,1 -1,1 -1,2 0,1 0,3 1,4 2,1 1,0 1,3 1,0 1,-1 2,-2 5,3 2,4 8,4 3,0 4,0 5,1 1,1 3,2 3,3 2,-1 5,-2 7,-2 4,0 4,0 8,2 2,1 2,1 3,2 3,3 3,3 5,7 0,0 0,1 1,2 1,2 5,4 9,5 7,0 4,0 10,-1 1,-1 2,-1 3,-1 2,0 2,0 3,-1 3,-3 2,-4 5,-4 5,0 8,-1 13,-1 1,-1 1,-1 2,0 1,0 1,1 2,1 3,1 10,1 13,1 0,-2 -1,-3 1,-3 0,5 3,4 4,7 1,1 1,2 1,3l-1 0c-1,-1 -1,-2 -3,-4 -1,-1 0,-1 -2,-1 -4,0 -10,0 -13,-1 -5,-2 1,-3 -8,-1 -11,1 -7,-2 -14,4 -1,1 -6,2 -8,3 -1,0 -2,0 -3,0 -1,1 -4,0 -6,0 -2,0 -3,-1 -5,-2 -2,-1 -3,-2 -4,-3 -1,-1 -1,-1 -2,-2 -1,-3 -2,-7 -5,-8 -1,-1 -5,-2 -6,-2 -5,0 -5,0 -10,1 -1,-1 -3,-4 -5,-4l-6 0c-2,0 -3,-2 -5,-3 -2,2 -5,4 -5,6 -4,9 -4,3 -5,10 0,0 -1,0 -1,1 0,2 2,2 3,4 0,2 -1,3 1,5 3,3 2,3 2,7 0,1 -4,4 -5,4 -6,6 -2,5 -14,5 -2,0 -3,-1 -5,-1 -1,-1 -4,0 -6,0 -1,0 -10,-2 -10,-3 -1,0 -3,-3 -4,-3 -3,-3 -2,-4 -6,-5 -3,-1 -4,1 -7,2 -2,-3 -4,-3 -8,-5 -1,1 -1,2 -2,3 -1,0 -4,0 -5,0 0,1 -1,4 -2,4 -1,0 -2,0 -3,0 -2,0 -2,0 -3,1 -3,2 -5,3 -8,6 -2,2 -1,2 -5,2 0,1 -1,3 -1,5 -1,-1 -1,-1 -1,-1l-2 0c0,0 0,0 -1,1 -1,0 -1,0 -2,1 -2,2 -2,2 -4,2 -3,0 -4,0 -6,1 -7,3 -4,5 -9,4 -2,0 -3,0 -4,-2 -2,-3 -4,-5 -5,-9 -1,1 -1,2 -3,3 -1,0 -4,1 -5,1 -2,0 -8,-2 -10,-3l0 -5c-4,-2 -4,-2 -5,-4 -2,-3 -3,-2 -4,-4 -2,-1 -1,-4 -2,-5 -3,-4 -4,-2 -6,-4 -3,-3 -1,-2 -6,-2 -2,0 0,2 -9,3 0,0 -1,-1 -1,-2 -1,0 -2,0 -3,0 -3,1 -2,1 -4,-1 -1,-1 -3,-3 -3,-3 0,-1 0,-7 -4,-5 -1,1 -2,4 -2,5 -2,0 -4,1 -6,1 0,-1 -1,-2 -2,-4 -2,-4 -2,-10 -3,-12 -2,-3 -4,-4 -4,-8 1,-6 -3,-2 -3,-7 0,-5 0,-6 -1,-10 -2,-4 -1,-3 -5,-6 -3,-4 -2,-6 -5,-9 -1,0 -1,0 -2,-1 -1,0 -3,-1 -3,-2 0,-4 -1,-4 3,-4 1,0 2,-2 2,-2 0,-1 0,-2 -1,-2 -3,0 -3,0 -5,2 -1,1 -1,0 -3,1l-4 0c-2,0 -2,2 -5,3 -2,1 -3,1 -4,2 -2,0 -4,2 -6,2 -1,0 -2,-2 -2,-3 -4,2 -4,2 -8,2 0,0 0,-2 0,-3 1,-1 1,-3 1,-3 0,-1 4,-2 5,-2l0 -2 -3 0c-1,0 -3,-2 -4,-2 -1,0 -1,1 -2,2 -2,-1 -4,-1 -5,-2 1,-1 1,-3 1,-5 -1,0 -1,-2 -3,-1 -1,0 -2,1 -3,1 -1,0 -4,-1 -5,-1 0,-1 -1,-3 -1,-4 1,-1 2,-2 2,-3 1,-3 0,-2 1,-5 0,-2 0,-2 0,-3 -1,-1 -1,-2 -2,-3 -1,-1 -1,-1 -2,-1zm281 67c0,1 1,4 1,5 2,1 2,0 2,4 0,1 -2,2 -3,3 -1,1 -1,4 -4,7 -1,1 -1,1 -2,3 0,5 0,4 2,6 1,2 0,1 0,5 1,1 1,1 1,1 3,3 3,2 3,7 0,0 -2,1 -2,2 -1,0 -2,1 -3,1 -6,5 -1,5 -12,5 -1,0 -6,-2 -6,-2 -7,0 -1,3 -14,-1 -2,-1 -3,-2 -6,-5 -2,-3 -3,-3 -6,-4 -2,-1 -1,-1 -3,0 -2,1 -3,1 -4,2 -1,-1 -3,-3 -3,-4 -1,0 -5,-2 -5,-2 -1,0 -2,3 -3,3 -1,1 -2,1 -5,1 0,1 -1,3 -2,4 -6,0 -4,0 -11,4 -1,1 -3,3 -4,4 -3,1 -5,-2 -5,3 -1,-1 0,-3 -1,-4 0,-1 -2,-2 -2,-3 2,-3 4,0 5,-3 0,-1 0,-1 0,-2 -1,-1 -2,-3 -3,-4 -1,0 -3,-2 -4,-3 -2,-2 -1,-1 -2,-4 0,-1 0,-2 -1,-3 0,-1 0,-2 0,-3l1 -1c1,0 2,0 2,0l5 1c1,0 0,0 2,-1 4,-4 3,-2 3,-8l3 -1c2,2 5,4 8,4 2,1 4,0 5,1 4,1 2,2 7,2 2,0 5,-2 6,-3l3 -3c1,0 1,-1 2,-1 1,0 4,-1 4,-1 0,-2 0,-5 1,-6 0,-1 2,-2 2,-3l0 -3c2,0 4,-1 5,-1l1 -8c1,0 1,-1 2,-1 1,0 4,1 5,1 1,-1 3,-4 4,-4l3 0c2,0 2,0 3,-1 1,0 1,0 2,0 1,-1 1,-1 1,-2 7,0 3,1 8,2 2,0 2,0 3,1 5,4 3,4 10,4 1,0 2,-1 2,-1l3 3c-4,2 -1,4 -2,6 -1,0 -2,1 -2,1zm-216 -19c1,-1 2,-1 2,-1 1,-1 1,-1 2,-2l2 2 6 -2c3,-1 7,0 8,-1l5 -4c1,0 6,-2 7,-2 4,0 3,-1 5,2 1,1 2,2 3,2 0,1 -1,2 0,4 1,1 2,2 2,3l3 0c0,0 1,1 1,2 0,1 1,1 1,2 1,0 3,-1 3,-1 2,-1 1,-4 3,-6 1,-1 2,-2 3,-3l2 3 3 -3c1,0 2,1 2,1 2,0 2,-1 3,-2 1,0 1,0 2,0 3,0 2,0 5,-2 1,0 3,-1 4,-1l2 4 3 0 3 5c1,1 2,1 2,2 1,1 0,3 1,4 3,2 4,2 6,2 0,2 0,2 -1,2 -1,1 -2,1 -2,1 3,5 1,4 2,8 1,1 1,1 1,2 -3,1 -3,2 -5,5l2 3c0,0 0,1 -1,1l-2 0c0,1 -1,2 -2,2 0,0 -3,-2 -3,-2 -1,1 -2,2 -3,2 -1,2 0,3 -1,4l-3 4c-1,1 -1,1 -2,1 -3,0 -5,1 -8,2 -1,0 -3,0 -4,1 0,0 -2,2 -2,2 1,2 4,5 4,6l0 2c-2,0 -1,0 -3,0 0,-1 -1,-1 -2,-2 -1,-1 -1,-1 -2,-1 -4,-2 -3,-4 -5,-4l-5 0c-2,0 0,3 -7,4l-2 -2c-1,0 -4,0 -5,0 0,0 -2,-2 -3,-2 -2,-3 0,-2 -1,-5 0,-1 -1,-1 -2,-3 -1,1 -2,1 -3,1 -2,1 -2,4 -4,5 0,0 -2,0 -3,1 0,-1 -1,-2 -1,-3 -1,-1 -1,-2 -2,-3 -1,-5 -1,-7 -3,-12 -1,0 -1,-1 -2,-2 0,-1 0,-2 0,-4 0,-4 -1,-2 -3,-4 -1,-2 0,-6 -1,-8 0,-2 -1,-7 -3,-8 0,-1 -1,-2 -2,-2zm110 -24c2,-1 1,-1 3,-1 1,2 2,4 4,5 1,2 1,2 2,2 6,2 4,0 6,-1 0,0 2,1 3,1 5,0 3,-1 6,-1 1,1 1,1 0,3 -1,6 -1,3 3,8 1,1 1,4 2,5 1,1 4,3 4,4 0,1 0,2 0,4 0,3 2,1 0,5 0,1 0,2 -1,2 0,0 0,0 0,1 -6,4 1,3 -4,8 -2,2 -4,2 -5,3 0,1 -1,3 -2,5 -1,1 -4,3 -5,3 0,3 0,5 -1,6 -1,1 -2,1 -3,3 -1,-1 -2,-1 -3,-1 -2,0 -3,-1 -4,-1 -2,2 -1,2 -4,2 -1,1 -2,3 -2,4 -3,0 -2,0 -4,-1 -1,-1 -1,-1 -2,-2 1,-3 2,0 1,-6 0,0 4,-5 5,-5l3 0 0 -3c0,-1 5,-6 6,-7 -1,-2 -2,-2 -3,-4 -1,-2 1,-3 2,-4 -1,-1 -3,-4 -4,-5l3 -4c1,-1 0,-3 0,-5 1,-3 2,-2 2,-3l0 -3c-2,0 -3,-1 -4,-1 -1,0 -1,1 -3,2 0,-1 -1,-1 -1,-2 1,0 2,0 3,-1 0,-1 0,-3 0,-4 1,-4 1,-2 -1,-7l-2 -4zm8 -7c-3,0 -4,3 -7,5 -1,1 -1,2 -2,2 0,2 3,8 3,8 0,1 0,2 0,3 -1,1 -1,2 -1,3 -1,1 -2,2 -4,2l4 4c1,-1 2,-2 3,-3 0,0 2,1 2,1 0,5 -1,-1 -1,8 0,2 -1,2 -1,3 -1,1 -2,3 -3,3 2,2 2,2 3,3l1 2c0,0 -2,2 -1,4 0,2 2,3 2,4 -1,1 -6,5 -6,6l0 3 -1 0 0 -4c-3,0 -2,0 -5,-1 -1,-1 -1,-1 -3,-1 -1,0 -2,1 -3,0 -1,-2 -2,-2 -3,-4 -1,-5 0,-4 -1,-6 0,-1 -1,-2 -1,-2 1,-1 1,-1 2,-1l0 -4c-3,0 -3,0 -5,-1 -3,-2 0,-3 -3,-6 -2,-2 -2,-4 -4,-6l-3 0 -4 -7c-1,-1 -1,-1 -1,-3 0,-3 1,-6 0,-9 -1,-7 -1,-4 -2,-8 0,-1 0,-4 0,-5 1,0 2,-1 4,-1 7,-1 5,1 8,-2 1,-1 5,-4 5,-4 4,0 4,-1 8,1 0,0 3,-2 4,-2l2 2c2,-1 3,-4 7,-5 0,1 0,1 0,2 0,1 0,2 0,3 0,2 1,3 3,3 2,1 2,1 3,4 1,1 1,4 1,6zm-125 -26c1,0 3,-2 3,-3l0 -9c1,0 2,1 3,1 2,1 2,3 4,3 3,0 8,-1 10,0 3,2 3,2 7,4 4,1 2,1 6,4 2,2 5,6 6,8 10,0 8,-1 12,4 1,2 1,1 4,1 1,0 4,0 5,-1 2,0 2,-1 4,-3 2,1 2,2 2,5 0,1 0,3 0,4 0,2 1,1 1,2l-1 2 3 3c0,0 3,-3 3,-4 3,-2 1,-1 6,-1 0,8 2,6 3,10 1,9 0,6 0,13 0,1 1,3 2,4 -1,0 -2,1 -3,1 -1,0 -2,2 -3,2 -1,0 -3,0 -4,0 -1,0 -2,1 -3,2 0,-1 0,0 0,-1l-2 -1 -3 3 -2 -2c-1,0 -4,3 -5,4 -1,2 0,4 -3,5 -1,0 -2,-3 -3,-4l-2 0c-1,-1 -1,-1 -2,-2 0,-1 1,-2 0,-3 0,-1 -3,-3 -3,-4 -2,-2 -2,-2 -5,-2 -2,1 -2,0 -3,1 -4,1 -4,1 -7,3 -4,3 -3,3 -9,3 -1,0 -1,0 -2,0 -2,1 -4,2 -6,2l-2 -2c-1,1 -2,1 -2,2 -1,1 -1,1 -3,2 -1,-2 -1,-2 -2,-3 -1,-2 -1,-3 -2,-4 -1,-2 -3,-3 -6,-4l0 -2c3,0 3,0 4,-2 3,-4 1,-2 0,-6 0,0 -3,0 -4,0 -1,0 -1,1 -2,2 -2,2 -3,1 -7,1 1,-1 2,-5 4,-5 0,-1 0,-2 0,-2 0,-4 -2,-1 -2,-6 0,-3 -1,-5 -1,-8 0,-1 1,-3 1,-3 1,-2 1,-2 2,-3l2 -3c2,-3 5,0 6,-1 0,0 1,0 1,0 1,-1 1,-2 1,-4 0,-1 -1,-2 -1,-3zm-38 -39c0,3 -1,2 1,3 2,1 6,2 8,3 3,2 2,1 6,1 1,0 2,-1 2,-1 3,0 1,2 11,2 0,0 4,-2 5,-3 1,0 1,-1 2,-2 1,0 1,0 1,-1l1 -1c0,2 -2,5 -2,6 0,4 0,4 1,5 1,2 1,1 1,2 0,1 -1,4 0,5 0,1 3,5 3,8l0 8c0,1 -3,3 -3,4 0,0 2,6 -1,6 -2,0 -1,-1 -4,0 -2,0 -1,0 -3,2 0,1 -1,2 -2,2 -1,1 -3,6 -2,8 0,5 0,5 0,9 1,3 2,1 2,5 0,1 -1,-1 -3,4 0,3 0,3 -3,5 -1,1 -3,2 -5,2 -2,1 -4,2 -6,3 0,-1 0,-1 -1,-2 0,0 0,-1 -1,-1 -1,0 -1,0 -3,1 -2,1 -1,1 -4,1 1,-2 1,-3 1,-5 2,0 2,0 3,-1 3,-1 2,0 2,-5 -6,0 -3,1 -8,-2l-2 2c-1,0 -2,0 -3,0 0,-2 1,-4 1,-5 -2,-1 -2,-2 -4,-3 -1,0 -1,0 -2,1 -4,2 -2,0 -6,0 0,-1 0,-2 -1,-3 1,0 1,-1 2,-1 2,-2 1,-2 1,-5 0,-3 2,-1 -1,-7 0,-2 0,-1 -1,-2 0,0 -1,-1 -2,-1 0,-1 0,-1 0,-2 2,-5 3,-1 3,-6 6,-2 5,-7 5,-8 0,-1 3,-4 4,-5 2,-1 4,0 6,-3 0,0 0,-2 0,-3 -3,-1 -3,-4 -4,-4 0,-1 -2,-2 -2,-2 -1,-1 -4,-2 -1,-4 1,0 1,0 2,0 0,-3 -3,-6 0,-9 1,-1 1,-1 2,-3 1,-1 3,-2 3,-2 1,0 2,1 2,2 0,0 -1,1 -1,2zm121 -13c1,2 1,4 1,5 2,0 4,2 6,1 6,-1 2,-1 10,-1 1,0 5,1 5,1 1,1 2,3 3,4 1,1 3,2 3,3 1,1 1,4 2,5 2,0 5,0 6,0 1,1 1,1 1,1 0,1 -2,2 -3,3 0,1 0,1 -1,2 0,0 -1,1 -2,2 0,0 -1,2 -1,3 -2,5 2,3 3,11 8,0 6,1 9,2 0,1 0,2 0,3 -5,3 -3,1 -5,5 -1,1 -1,2 -1,3 0,2 0,3 0,5 -5,1 -5,4 -8,5l-2 -2c-4,3 -4,3 -6,2 -2,-1 -3,-1 -6,-1 -1,0 -2,1 -3,2 -3,3 -3,4 -6,4 -8,0 -5,1 -9,2 -1,0 -4,0 -5,0 0,0 0,0 -1,1 -1,0 -1,1 -2,1 0,1 -1,2 -2,3l-1 -1c0,-1 1,-1 1,-2 -1,-2 -2,0 -2,-5l0 -5c0,0 0,0 0,0 -1,-1 -2,-2 -4,-2 0,0 -2,2 -3,3 -2,1 -5,1 -7,1 -2,0 -3,-4 -4,-5 -1,0 -8,0 -9,0 -1,-1 -1,-1 -2,-2 -3,-5 -2,-3 -6,-7 -2,-3 -1,-2 -5,-4 -8,-3 -4,-3 -12,-4 -6,0 -4,1 -7,-2 -1,-1 -2,-1 -3,-1 -3,-1 -1,0 -4,-5 -2,-5 -1,-2 -1,-8 0,-1 -2,-2 -2,-3 0,-6 1,-4 2,-8 0,-1 0,-1 0,-2 1,-1 5,-3 5,-3 1,-4 1,-4 3,-6l3 -2 7 -2c0,-11 -1,-3 3,-14 0,-1 0,-1 1,-2 0,-1 1,-1 3,-1 4,-1 3,-1 6,0 4,2 3,2 9,2 0,0 1,1 1,2 6,0 5,2 9,0 0,0 3,-1 3,-1 1,0 4,4 5,5 1,-1 1,-1 2,-1 2,-1 2,0 3,0 1,1 3,2 4,2 1,-1 1,-5 2,-5 1,0 2,-1 2,-1 6,-2 5,-2 7,-1 7,6 4,3 9,12l-4 3z"/>
     <path class="fil0" d="M391 225c0,6 0,3 1,5 -2,2 -2,0 -2,9 0,1 2,0 5,0 0,-1 0,-1 -1,-1 -1,0 -2,0 -2,0l0 -6c1,0 2,-1 3,-1 -2,-3 -2,-1 -2,-5 0,-1 1,-2 2,-3l-1 -1c-1,1 -3,2 -3,3z"/>
    </g>
    <g id="city">
     <circle class="fil1" cx="133" cy="133" r="5"/>
     <circle class="fil1" cx="25" cy="162" r="5"/>
     <circle class="fil1" cx="223" cy="155" r="5"/>
     <circle class="fil1" cx="136" cy="219" r="5"/>
     <circle class="fil1" cx="173" cy="216" r="5"/>
     <circle class="fil1" cx="57" cy="169" r="3"/>
     <circle class="fil1" cx="187" cy="157" r="3"/>
     <circle class="fil1" cx="149" cy="189" r="3"/>
     <circle class="fil1" cx="147" cy="176" r="3"/>
     <circle class="fil1" cx="148" cy="230" r="3"/>
     <circle class="fil1" cx="90" cy="237" r="3"/>
     <circle class="fil1" cx="194" cy="167" r="3"/>
     <circle class="fil1" cx="161" cy="202" r="2"/>
     <circle class="fil1" cx="165" cy="208" r="2"/>
     <circle class="fil1" cx="158" cy="195" r="2"/>
     <circle class="fil1" cx="165" cy="190" r="5"/>
    </g>
    <g id="city-name">
     <text x="170" y="152"  class="fil1 fnt0">Ачинск</text>
     <text x="97" y="210"  class="fil1 fnt1">Барнаул</text>
     <text x="200" y="170"  class="fil1 fnt0">Назарово</text>
     <text x="114" y="178"  class="fil1 fnt0">Юрга</text>
     <text x="33" y="166"  class="fil1 fnt1">Омск</text>
     <text x="141" y="137"  class="fil1 fnt1">Томск</text>
     <text x="229" y="159"  class="fil1 fnt1">Красноярск</text>
     <text x="161" y="233"  class="fil1 fnt1">Новокузнецк</text>
     <text x="62" y="176"  class="fil1 fnt0">Татарск</text>
     <text x="114" y="193"  class="fil1 fnt0">Топки</text>
     <text x="94" y="241"  class="fil1 fnt0">Бийск</text>
     <text x="132" y="242"  class="fil1 fnt0">Рубцовск</text>
     <text x="174" y="194"  class="fil1 fnt1">Кемерово</text>
    </g>
 </g>
</svg>