<svg xmlns="http://www.w3.org/2000/svg" id="percent_" width="148.06" height="90.593">
  <defs>
    <style>
      .cls-1 { fill: #fff140; } .cls-1, .cls-2 { fill-rule: evenodd; } .cls-2 { fill: #fff; }
    </style>
  </defs>
  <path id="Прямоугольник" d="M39.5.25l78.84 10.247c19.07 2.477 32.22 22.414 29.32 44.516-2.89 22.093-20.71 37.9-39.74 35.31L29.19 79.637C10.41 77.087-2.47 57.307.36 35.443 3.2 13.57 20.7-2.187 39.5.25z" class="cls-1"/>
  <path id="_" d="M61.86 39.233c.55 2.034-.14 3.224-1.81 3.672-1.72.46-2.91-.226-3.45-2.26l-1.28-4.747c-.54-2.035.15-3.225 1.87-3.686 1.67-.448 2.86.24 3.4 2.274zm4.96-1.1l-1.38-5.164c-1.26-4.697-5.36-6.226-9.43-5.136-4.12 1.1-6.96 4.492-5.7 9.187l1.39 5.165c1.25 4.694 5.41 6.21 9.53 5.1 4.07-1.09 6.85-4.464 5.59-9.158zm23.65 13.12c.53 1.982-.16 3.173-1.88 3.634s-2.91-.226-3.44-2.208l-1.29-4.8c-.53-1.984.14-3.227 1.86-3.688s2.93.278 3.46 2.26zm4.94-1.157l-1.38-5.164c-1.26-4.7-5.36-6.224-9.48-5.12s-6.91 4.48-5.65 9.173l1.38 5.164c1.28 4.745 5.36 6.222 9.48 5.12s6.92-4.433 5.65-9.18zM79.36 21.912l-5.32 1.425-7.62 41.85 5.32-1.426z" data-name="%" class="cls-2"/>
</svg>