<svg xmlns="http://www.w3.org/2000/svg" id="sale" width="620" height="403">
  <defs>
    <style>
      .cls-1 { fill: #00c2e1; } .cls-1, .cls-2 { fill-rule: evenodd; } .cls-2 { fill: #fff; }
    </style>
  </defs>
  <path id="фон_под_текстом" d="M0 46.082L1.8 310.83s.9 93.067 86.46 92.163l409.79-14.457s90.97 9.94 109.88-84.936l11.71-199.69s9.9-65.056-73.85-70.478L45.93 0S.9 2.71 0 46.082z" data-name="фон под текстом" class="cls-1"/>
  <path id="sale" d="M139 112.043V68.938h-31.32v43.105h8.39v-35.6h14.542v35.6H139zm40.4-21.552c0-8.23-.12-13.07-4.4-17.37a16.824 16.824 0 0 0-22.99 0c-4.286 4.3-4.346 9.14-4.346 17.38s.06 13.08 4.345 17.38a16.824 16.824 0 0 0 22.99 0c4.28-4.3 4.4-9.14 4.4-17.37zm-8.388 0c0 8.24-.543 10.24-2.112 12.05a7 7 0 0 1-5.37 2.36 7.232 7.232 0 0 1-5.43-2.36c-1.57-1.81-2.053-3.81-2.053-12.04s.483-10.29 2.052-12.11a7.193 7.193 0 0 1 5.43-2.3 6.963 6.963 0 0 1 5.37 2.3c1.57 1.82 2.11 3.88 2.11 12.11zm55.745 21.56V68.94h-8.268l-11.17 23.31-11.22-23.31h-8.27v43.105h8.39V86.92l8.26 16.345h5.67l8.2-16.346v25.12h8.38zm40-21.55c0-8.23-.12-13.07-4.4-17.37a16.824 16.824 0 0 0-22.99 0c-4.286 4.3-4.346 9.14-4.346 17.38s.06 13.08 4.35 17.38a16.824 16.824 0 0 0 22.99 0c4.29-4.3 4.41-9.14 4.41-17.37zm-8.388 0c0 8.24-.55 10.23-2.12 12.05a7 7 0 0 1-5.37 2.36 7.234 7.234 0 0 1-5.43-2.36c-1.57-1.81-2.05-3.81-2.05-12.04s.48-10.29 2.05-12.11a7.2 7.2 0 0 1 5.43-2.3 6.966 6.966 0 0 1 5.37 2.3c1.57 1.82 2.12 3.88 2.12 12.11zm44.03-14.05v-7.51h-27.02v43.11h8.38v-35.6h18.64zm40.2 35.6l-15.69-43.1h-6.58l-15.63 43.1h8.75l2.59-7.63h15.26l2.53 7.63h8.75zm-13.5-14.72h-10.69l5.43-15.68zm47.35 14.71v-7.5h-19.91V94.07h16.96v-7.51h-16.96V76.45h19.91v-7.51h-28.3v43.105h28.3zm47.54 0v-43.1h-8.27l-11.16 23.31-11.23-23.31h-8.27v43.11h8.39V86.92l8.27 16.345h5.663l8.21-16.346v25.12h8.4zm-285 72.65v-43.1h-31.32v43.11h8.39v-35.6h14.54v35.6h8.4zm40.94-29.66c0-7.32-5.25-13.44-14.18-13.44H149.1v43.11h8.39v-16.23h8.267c8.933 0 14.18-6.11 14.18-13.44zm-8.39 0c0 3.51-2.42 5.88-6.22 5.88h-7.84V149.1h7.84c3.8 0 6.212 2.42 6.212 5.932zm45.67 8.12c0-8.23-.12-13.07-4.4-17.37a16.82 16.82 0 0 0-22.99 0c-4.29 4.3-4.35 9.14-4.35 17.38s.06 13.08 4.34 17.378a16.82 16.82 0 0 0 22.99 0c4.28-4.297 4.4-9.14 4.4-17.374zm-8.39 0c0 8.24-.54 10.23-2.11 12.05a7 7 0 0 1-5.37 2.36 7.235 7.235 0 0 1-5.43-2.36c-1.57-1.81-2.05-3.81-2.05-12.05s.48-10.29 2.05-12.11a7.192 7.192 0 0 1 5.43-2.3 6.963 6.963 0 0 1 5.37 2.3c1.57 1.82 2.11 3.87 2.11 12.11zm52.67 31.12v-17.08h-4.95v-35.6h-25.89v11.01c0 9.93-1.57 19.07-5.13 24.58h-4.04v17.08h8.08v-9.56h23.84v9.57h8.08zm-13.34-17.07H234.9c2.957-5.99 3.8-13.32 3.8-21.85v-6.24h9.474v28.09zm53.01 7.51l-15.68-43.11h-6.58l-15.63 43.11h8.75l2.59-7.63h15.27l2.53 7.63h8.75zM287.64 170h-10.68l5.43-15.68zm44.28-7.385a9.77 9.77 0 0 0 5.31-9.143c0-7.26-5.19-11.86-13.28-11.86H306.7v43.11h17.98c8.085 0 13.154-4.78 13.154-12.35a10.266 10.266 0 0 0-2.656-7.445 11.614 11.614 0 0 0-3.253-2.3zm-16.84-3.574v-9.92h8.203c3.44 0 5.552 1.88 5.552 4.97s-2.11 4.97-5.55 4.97h-8.2zm0 18.17v-10.6h8.75c3.44 0 5.61 2 5.61 5.27s-2.17 5.33-5.61 5.33h-8.75zm64.43 7.51l-15.69-43.1h-6.58l-15.624 43.1h8.75l2.6-7.63h15.263l2.53 7.63h8.75zM366 170h-10.68l5.43-15.68zm46.7-20.898v-7.51h-30.83v7.508h11.22v35.6h8.387v-35.6H412.7zm37.42 22.156c0-7.87-5.55-13.44-13.94-13.44h-8.507V141.59h-8.39v43.104h16.9c8.325 0 13.937-5.57 13.937-13.44zm-8.387 0c0 3.573-2.415 5.934-6.216 5.934h-7.844v-11.87h7.846c3.8 0 6.21 2.43 6.21 5.94zM139 257.34v-43.105h-8.388v17.617H116.07v-17.617h-8.39v43.105h8.39V239.3h14.542v18.042H139zm38.412 0v-7.507H157.5V239.36h16.957v-7.507H157.5v-10.11h19.914v-7.506h-28.3v43.105h28.3zm54.353 0v-43.105h-31.318v43.105h8.387v-35.6h14.543v35.6h8.388zm40.947-29.665c0-7.326-5.25-13.44-14.18-13.44h-16.656v43.105h8.388v-16.225h8.267c8.94 0 14.19-6.113 14.19-13.44zm-8.388 0c0 3.51-2.414 5.872-6.216 5.872h-7.844V221.74h7.844c3.802 0 6.216 2.42 6.216 5.933zm47.964 29.665v-43.105h-7.482L288.09 241.84v-27.607h-8.39v43.105h7.482L303.9 229.67v27.668h8.388zm41.063 0v-43.105h-26.73v19.554c0 13.5-3.08 16.04-7.36 16.04h-1.2v7.51h3.32c8.93 0 13.34-4.97 13.34-23.07v-12.53h10.26v35.6h8.39zm43.3 0l-15.69-43.105h-6.57l-15.63 43.105h8.75l2.6-7.63h15.27l2.54 7.63h8.75zm-13.51-14.712h-10.68l5.43-15.68zm46.26-20.888v-7.507h-27.03v43.105h8.39v-35.6h18.64zm40.2 35.6l-15.69-43.105h-6.57l-15.63 43.105h8.75l2.6-7.63h15.27l2.54 7.63h8.75zm-13.51-14.712h-10.68l5.43-15.68zm33-1.513h6.88v16.225h8.39v-43.107H487.7c-8.27 0-14.12 5.206-14.12 13.44a12.417 12.417 0 0 0 7.36 11.745l-8.87 17.92h9.956zm6.88-7.447h-7.84a5.9 5.9 0 0 1-6.21-6.114c0-3.572 2.48-5.933 6.22-5.933h7.85v12.05zM137.49 286.88h-8.69l-8.146 20.765-8.99-20.765h-8.75l13.757 29.907-1.26 2.967a4.41 4.41 0 0 1-4.46 2.724h-3.38v7.507h5.13c5.01 0 7.97-3.39 9.6-7.265zm35.488 29.846h-8.51c-.843 3.512-3.076 6.115-7.24 6.115a6.92 6.92 0 0 1-5.37-2.24c-1.57-1.81-2.113-3.93-2.113-12.16s.544-10.35 2.113-12.17a6.92 6.92 0 0 1 5.37-2.24c4.164 0 6.336 2.6 7.18 6.12h8.57c-1.57-9.02-7.724-13.62-15.75-13.62a15.51 15.51 0 0 0-11.526 4.54c-4.284 4.3-4.344 9.14-4.344 17.38s.06 13.08 4.344 17.38a15.51 15.51 0 0 0 11.526 4.54c7.965 0 14.18-4.6 15.75-13.62zm40.24 13.26V286.88h-7.482l-16.716 27.606V286.88h-8.387v43.105h7.482l16.716-27.667v27.667h8.39zm41.063 0V286.88h-26.73v19.555c0 13.5-3.08 16.043-7.36 16.043h-1.2v7.507h3.32c8.93 0 13.34-4.964 13.34-23.066v-12.54h10.25v35.6h8.39zm42.7 0V286.88h-7.48l-16.72 27.606V286.88h-8.38v43.105h7.49l16.72-27.667v27.667H297zm35.88-54.064h-5.91c-.18 2.664-1.69 3.754-3.86 3.754s-3.68-1.09-3.86-3.754h-5.92c.25 6.538 5.01 8.657 9.78 8.657s9.54-2.12 9.78-8.66zm6.46 54.063V286.88h-7.48l-16.71 27.606V286.88h-8.38v43.105h7.48l16.72-27.667v27.667h8.387z" data-name="ПОМОГАЕМ ПРОДАВАТЬ Н" class="cls-2"/>
</svg>