<svg xmlns="http://www.w3.org/2000/svg" xml:space="preserve" width="150px" height="100px" version="1.1" style="shape-rendering:geometricPrecision; text-rendering:geometricPrecision; image-rendering:optimizeQuality; fill-rule:evenodd; clip-rule:evenodd"
viewBox="0 0 200 130"
 xmlns:xlink="http://www.w3.org/1999/xlink">
 <g>
  <path id="percent_1" class="fil0" d="M42.13 7.49l74.53 9.69c18.03,2.34 30.46,21.19 27.72,42.08 -2.73,20.89 -20.69,39.72 -38.68,37.27l-72.21 -5.62c-17.76,-2.41 -31.04,-29.48 -28.37,-50.15 2.69,-20.68 19.23,-35.57 37.01,-33.27z"/>
  <path id="percent_2" class="fil0" d="M42.13 5.49l77.56 1.77c18.03,2.34 27.43,29.11 24.69,50.01 -2.73,20.88 -19.58,35.83 -37.57,33.38l-74.43 -10.11c-17.75,-2.41 -29.93,-21.1 -27.26,-41.78 2.69,-20.67 19.23,-35.57 37.01,-33.27z"/>
  <path id="percent_3" class="fil0" d="M42.13 7.49l59.28 3.31c18.03,2.35 28.52,25.63 25.78,46.52 -2.73,20.89 -34.4,41.87 -52.39,39.42l-31.61 -5.83c-17.75,-2.41 -30.48,-29.2 -27.81,-49.87 2.69,-20.68 8.97,-35.85 26.75,-33.55z"/>
 </g>
</svg>
