<svg  width="287px" height="192px" viewBox="-60 -60 400 250"  style="display:none">
 <g>
  <path id="arrow" class="fil0" d="M85.67 34.14l110.7 -13.58c2.93,-0.36 5.91,-0.54 8.87,-0.54 36.99,0 68.19,27.58 72.71,64.29 0.35,2.99 0.55,6.01 0.55,9.02 0,36.91 -27.54,68.05 -64.17,72.55l-110.7 13.58c-2.93,0.36 -5.91,0.54 -8.87,0.54 -36.99,0 -68.19,-27.58 -72.71,-64.29 -0.36,-2.99 -0.55,-6.01 -0.55,-9.02 0,-36.91 27.54,-68.05 64.17,-72.55l0 0z"/>
  <path id="arrow_1" class="fil0" d="M92 34l101.5 -6.5c2.93,-0.36 26.06,2.01 39.5,5.5 20.77,5.4 40.44,14.6 44.95,51.31 0.36,2.98 0.55,6.01 0.55,9.02 0,36.91 -18.26,57.72 -54.5,64.67l-96.87 18.58c-9.3,1.78 -27.7,6.24 -44.87,5.38 -39.26,-1.96 -56.26,-9.54 -60.76,-46.25 -0.37,-2.98 -0.45,-26.05 0,-29.02 2,-13.19 28.69,-62.24 64.5,-71.19l6 -1.5z"/>
  <path id="arrow_2" class="fil0" d="M121 31.5l75.37 -10.94c2.93,-0.36 5.91,-0.54 8.87,-0.54 36.99,0 44.76,4.27 49.27,40.98 0.36,2.98 0.23,40.77 -0.01,43.76 -2.95,36.93 -35.15,74.12 -75.17,75.24l-73.7 2.07c-2.93,0.36 -7.99,-1.4 -10.87,-2.07 -35.42,-8.2 -37.88,-6.31 -52.65,-41.01 -1.18,-2.77 -2.74,-35.97 -2.74,-38.98 0,-36.91 23.11,-51.97 58.63,-62.01l23 -6.5z"/>
 </g>
</svg>
