<svg width="370px" height="200px" version="1.1" viewBox="-30 -30 481 260" style="display:none">
 <g>
  <path id="percent1" class="fil0" d="M286.77 29.81l-190.35 -19.82c-43.96,-3.87 -82.58,28.83 -86.27,73.05l0.11 0.88c-0.18,2.25 -0.29,4.53 -0.29,6.79 0,41.45 31.8,75.97 73.09,79.38l190.35 19.81c43.96,3.87 82.59,-28.84 86.28,-73.05 3.69,-44.2 -28.96,-83.18 -72.92,-87.04l0 0z"/>
  <path id="percent2" class="fil0" d="M279.55 19.07l-192.35 -0.49c-44.34,0.59 -79.68,36.84 -78.93,80.98l0.2 0.86c0.05,2.25 0.17,4.51 0.4,6.75 4.16,41.03 16.82,85.23 58.41,83.04l215 -11.32c44.34,-0.59 79.68,-36.84 78.93,-80.98 -0.75,-44.13 -37.31,-79.43 -81.66,-78.84l0 0z"/>
  <path id="percent3" class="fil0" d="M286.77 29.81l-190.35 -19.82c-43.96,-3.87 -82.58,28.83 -86.27,73.05l0.11 0.88c-0.18,2.25 -0.29,4.53 -0.29,6.79 0,41.45 31.8,75.97 73.09,79.38l190.35 19.81c43.96,3.87 82.59,-28.84 86.28,-73.05 3.69,-44.2 -28.96,-83.18 -72.92,-87.04l0 0z"/>
 </g>
</svg>
