<svg xmlns="http://www.w3.org/2000/svg" xml:space="preserve"  version="1.1" width="175" height="108" viewBox="-50 -50 262 162"
 xmlns:xlink="http://www.w3.org/1999/xlink">
 <g>
  <metadata id="CorelCorpID_0Corel-Layer"/>
  <path id="babl1" d="M126.37 1.98l-87.29 19.01c-19.22,9.91 -40.13,42.71 -27.45,68.84 6.47,14.61 19.79,19.17 37.66,16.1l88.05 -6.05c18.62,-3.2 26.99,-22.99 26.88,-48.37 -0.12,-29.5 -13.46,-54.25 -37.85,-49.53l0 0z"/>
  <path id="babl2" d="M126.37 1.98l-56.33 10.91c-23.12,4.48 -72.4,40.69 -59.72,66.82 6.47,14.61 21.1,29.29 38.97,26.22l86.18 -12.23c18.61,-3.2 35.61,-17.75 35.5,-43.13 -0.13,-29.5 -20.21,-53.31 -44.6,-48.59l0 0z"/>
  <path id="babl3" d="M126.37 1.98l-105.44 1.35c-23.11,4.47 -23.29,50.25 -10.61,76.38 6.47,14.61 21.1,29.29 38.97,26.22l105.67 -5.11c18.62,-3.2 16.12,-24.87 16.01,-50.25 -0.13,-29.5 -20.21,-53.31 -44.6,-48.59l0 0z"/>
 </g>
</svg>
