<svg viewBox="-20 -20 660 500" height="403" width="620" style="display:none">
    <path id="animated-path-0" class="animated-jello" fill="blue" fill-rule="evenodd" d="M0 46.082l1.8 264.747s.9 93.068 86.461 92.164l409.788-14.457s90.97 9.94 109.88-84.936l11.71-199.689s9.9-65.057-73.85-70.479L45.932 0S.9 2.711 0 46.082z"/>
    <path id="animated-path-1" fill-rule="evenodd" fill="#00C2E1" d="M15.865 60.845C4.901 163.881 3.279 255.665 0 338.225c.001.006-.01.348-.011.989-.001.64.007 1.578.048 2.775.082 2.395.294 5.824.813 9.991 1.039 8.341 3.309 19.609 8.252 31.679 4.949 12.106 12.599 25.226 24.438 37.463 5.917 6.104 12.881 11.973 21.049 17.171 4.084 2.597 8.468 5.021 13.169 7.197 2.351 1.087 4.781 2.112 7.292 3.063 2.511.95 5.103 1.827 7.778 2.617 136.761 36.915 266.179 30.977 391.494 18.526.025.013 5.175.683 13.248-.509 1.01-.149 2.065-.326 3.161-.537 1.096-.211 2.234-.455 3.409-.738 2.35-.564 4.848-1.28 7.461-2.182 5.226-1.802 10.91-4.348 16.778-7.87 23.467-14.186 49.943-43.544 61.819-100.692 7.451-78.425 12.72-147.859 17.354-208.399 0 .001.163-.907.289-2.524.064-.808.118-1.794.139-2.932.01-.569.012-1.176.002-1.819-.009-.642-.031-1.32-.066-2.029-.286-5.689-1.513-13.386-5.254-21.895-7.436-16.688-25.137-38.414-64.433-52.599C371.296 8.397 231.258-3.089 69.321.751c.005-.006-.168.019-.497.087-.33.067-.816.176-1.44.336-1.249.319-3.048.844-5.245 1.646-4.389 1.603-10.376 4.326-16.645 8.676C32.94 20.237 19.37 35.234 15.865 60.845z"/>
    <path id="animated-path-2" fill-rule="evenodd" fill="green" d="M14.221 26.872C8.266 49.06 4.649 72.428 2.526 95.564 1.466 107.142.785 118.682.397 130.091c-.194 5.705-.314 11.378-.371 17.012-.028 2.817-.04 5.624-.038 8.421.003 2.797.02 5.583.051 8.358.508 44.437 4.442 85.787 7.733 123.412.002.005.032.319.108.906.077.587.199 1.446.384 2.543.37 2.192.994 5.329 2.003 9.125 2.014 7.6 5.574 17.805 11.61 28.571 6.052 10.809 14.581 22.345 26.733 33.039 6.079 5.338 13.07 10.463 21.141 15.048 4.035 2.291 8.341 4.444 12.939 6.399 2.299.977 4.671 1.905 7.118 2.775 2.448.869 4.971 1.68 7.572 2.422 132.673 35.582 266.951 40.984 395.705 35.751.025.013 5.322.972 13.606.292 1.036-.085 2.118-.195 3.242-.336 1.125-.141 2.291-.312 3.496-.518 2.408-.413 4.968-.966 7.643-1.696 5.35-1.459 11.162-3.629 17.157-6.771 24.094-12.626 50.521-40.583 64.972-97.765C614.17 238.526 624.88 167.73 630.466 99.01c0 0 .189-1.049.343-2.888.077-.919.145-2.036.175-3.318.007-.32.012-.651.015-.992.001-.17.001-.343.001-.518s-.001-.352-.003-.532c-.008-.719-.028-1.475-.065-2.264-.297-6.312-1.67-14.736-5.941-23.145-8.396-16.774-29.047-33.71-72.358-32.128C381.29 38.246 233.478 74.353 75.599 3.628c.005-.002-.164-.062-.491-.165-.327-.103-.811-.248-1.436-.422-1.249-.347-3.059-.808-5.295-1.267C63.906.862 57.72-.074 50.934.093 37.488.465 21.081 5.186 14.221 26.872z"/>
</svg>